G04 ================== begin FILE IDENTIFICATION RECORD ==================*
G04 Layout Name:  CM_PCB_V2_03APR2019.brd*
G04 Film Name:    L4_BOTTOM*
G04 File Format:  Gerber RS274X*
G04 File Origin:  Cadence Allegro 17.2-S036*
G04 Origin Date:  Wed Apr 03 12:04:17 2019*
G04 *
G04 Layer:  VIA CLASS/BOTTOM*
G04 Layer:  PIN/BOTTOM*
G04 Layer:  ETCH/BOTTOM*
G04 Layer:  DRAWING FORMAT/TITLE_BLOCK*
G04 Layer:  BOARD GEOMETRY/OUTLINE*
G04 *
G04 Offset:    (0.000 0.000)*
G04 Mirror:    No*
G04 Mode:      Positive*
G04 Rotation:  0*
G04 FullContactRelief:  No*
G04 UndefLineWidth:     5.000*
G04 ================== end FILE IDENTIFICATION RECORD ====================*
%FSLAX25Y25*MOIN*%
%IR0*IPPOS*OFA0.00000B0.00000*MIA0B0*SFA1.00000B1.00000*%
%ADD10C,.14*%
%ADD11C,.02*%
%ADD12C,.06*%
%ADD14C,.073*%
%ADD13R,.06X.06*%
%ADD15R,.073X.073*%
%ADD16C,.005*%
%ADD17C,.01*%
%ADD19C,.040004*%
%ADD18C,.080004*%
%ADD20C,.093004*%
G75*
%LPD*%
G75*
G36*
G01X232742Y212841D02*
G02X233019Y212153I0J-400D01*
G03X247296I7138J-7428D01*
G02X247573Y212841I277J288D01*
G01X290982D01*
G02X295982Y208841I0J-5125D01*
G01Y5841D01*
G02X292982Y2841I-3000J0D01*
G01X246568D01*
G02X246328Y3561I0J400D01*
G03X233987I-6171J8250D01*
G02X233747Y2841I-240J-320D01*
G01X18221D01*
G02X17982Y3561I0J400D01*
G03X3698Y18160I-6171J8250D01*
G02X2982Y18406I-315J247D01*
G01Y93463D01*
G02X3620Y93784I400J0D01*
G03Y100215I2380J3215D01*
G02X2982Y100537I-238J322D01*
G01Y103463D01*
G02X3620Y103785I400J0D01*
G03Y110216I2380J3215D01*
G02X2982Y110537I-238J322D01*
G01Y113463D01*
G02X3620Y113784I400J0D01*
G03Y120216I2380J3215D01*
G02X2982Y120537I-238J322D01*
G01Y123463D01*
G02X3620Y123785I400J0D01*
G03Y130216I2380J3215D01*
G02X2982Y130537I-238J322D01*
G01Y133463D01*
G02X3620Y133784I400J0D01*
G03Y140216I2380J3216D01*
G02X2982Y140537I-238J322D01*
G01Y143463D01*
G02X3620Y143784I400J0D01*
G03Y150216I2380J3215D01*
G02X2982Y150537I-238J322D01*
G01Y153463D01*
G02X3620Y153784I400J0D01*
G03Y160216I2380J3215D01*
G02X2982Y160537I-238J322D01*
G01Y163463D01*
G02X3620Y163784I400J0D01*
G03Y170216I2380J3215D01*
G02X2982Y170537I-238J322D01*
G01Y198129D01*
G02X3698Y198376I400J0D01*
G03X18949Y212153I8113J6349D01*
G02X19227Y212841I277J288D01*
G01X232742D01*
G37*
%LPC*%
G75*
G36*
G01X285000Y46500D02*
Y52500D01*
G02X286000Y53500I1000J0D01*
G01X292000D01*
G02X293000Y52500I0J-1000D01*
G01Y46500D01*
G02X292000Y45500I-1000J0D01*
G01X286000D01*
G02X285000Y46500I0J1000D01*
G37*
G36*
G01X270003Y102019D02*
Y109319D01*
G02X271004Y110319I1000J0D01*
G01X278304D01*
G02X279304Y109319I0J-1000D01*
G01Y102019D01*
G02X278304Y101019I-1000J0D01*
G01X271004D01*
G02X270003Y102019I0J1000D01*
G37*
G36*
G01X210000Y159000D02*
Y165000D01*
G02X211000Y166000I1000J0D01*
G01X217000D01*
G02X218000Y165000I0J-1000D01*
G01Y159000D01*
G02X217000Y158000I-1000J0D01*
G01X211000D01*
G02X210000Y159000I0J1000D01*
G37*
G36*
G01X187000D02*
Y165000D01*
G02X188000Y166000I1000J0D01*
G01X194000D01*
G02X195000Y165000I0J-1000D01*
G01Y159000D01*
G02X194000Y158000I-1000J0D01*
G01X188000D01*
G02X187000Y159000I0J1000D01*
G37*
G36*
G01X164000D02*
Y165000D01*
G02X165000Y166000I1000J0D01*
G01X171000D01*
G02X172000Y165000I0J-1000D01*
G01Y159000D01*
G02X171000Y158000I-1000J0D01*
G01X165000D01*
G02X164000Y159000I0J1000D01*
G37*
G36*
G01X161300Y46000D02*
Y52000D01*
G02X162300Y53000I1000J0D01*
G01X168300D01*
G02X169300Y52000I0J-1000D01*
G01Y46000D01*
G02X168300Y45000I-1000J0D01*
G01X162300D01*
G02X161300Y46000I0J1000D01*
G37*
G36*
G01X119000Y92000D02*
Y98000D01*
G02X120000Y99000I1000J0D01*
G01X126000D01*
G02X127000Y98000I0J-1000D01*
G01Y92000D01*
G02X126000Y91000I-1000J0D01*
G01X120000D01*
G02X119000Y92000I0J1000D01*
G37*
G36*
G01X98000Y121000D02*
Y127000D01*
G02X99000Y128000I1000J0D01*
G01X105000D01*
G02X106000Y127000I0J-1000D01*
G01Y121000D01*
G02X105000Y120000I-1000J0D01*
G01X99000D01*
G02X98000Y121000I0J1000D01*
G37*
G36*
G01X32000Y164000D02*
Y170000D01*
G02X33000Y171000I1000J0D01*
G01X39000D01*
G02X40000Y170000I0J-1000D01*
G01Y164000D01*
G02X39000Y163000I-1000J0D01*
G01X33000D01*
G02X32000Y164000I0J1000D01*
G37*
G36*
G01X33500Y69500D02*
Y75500D01*
G02X34500Y76500I1000J0D01*
G01X40500D01*
G02X41500Y75500I0J-1000D01*
G01Y69500D01*
G02X40500Y68500I-1000J0D01*
G01X34500D01*
G02X33500Y69500I0J1000D01*
G37*
G36*
G01X136500Y127602D02*
G03X136083Y128002I-400J0D01*
G02X134333Y128894I-83J1998D01*
G03X133667I-333J-221D01*
G02Y131106I-1667J1106D01*
G03X134333I333J221D01*
G02X137270Y131546I1667J-1106D01*
G01X137325Y131500D01*
X137621D01*
X139500Y129621D01*
Y113323D01*
G02X136500I-1500J-1323D01*
G01Y127602D01*
G37*
G36*
G01X86621Y89500D02*
X91677D01*
G02Y86500I1323J-1500D01*
G01X85379D01*
X83000Y88879D01*
Y107177D01*
G02X86000I1500J1323D01*
G01Y90121D01*
X86621Y89500D01*
G37*
G54D19*
X90228Y121228D03*
X132000Y138000D03*
X128657Y167657D03*
X164350Y140050D03*
X188300Y141300D03*
X211300D03*
G54D18*
X26000Y97000D03*
Y107000D03*
Y117000D03*
Y127000D03*
Y137000D03*
Y147000D03*
Y157000D03*
Y167000D03*
X36000Y97000D03*
Y107000D03*
Y117000D03*
Y127000D03*
Y137000D03*
Y147000D03*
Y157000D03*
X102000Y104000D03*
Y114000D03*
X123000Y105000D03*
Y115000D03*
G54D20*
X254969Y105669D03*
%LPD*%
G75*
G54D10*
X11811Y11811D03*
Y204724D03*
X240157Y11811D03*
Y204724D03*
G54D11*
X10000Y25000D03*
Y40000D03*
Y55000D03*
Y70000D03*
Y85000D03*
X6000Y167000D03*
Y187000D03*
X25000Y5000D03*
Y174000D03*
X40000Y5000D03*
X30000Y25000D03*
Y40000D03*
Y55000D03*
Y70000D03*
Y85000D03*
X42300Y119000D03*
X42500Y109700D03*
X30000Y195000D03*
Y210000D03*
X55000Y5000D03*
X45000Y25000D03*
X51185Y49185D03*
X55000Y55000D03*
X45000D03*
X55000Y80000D03*
Y90000D03*
X59000Y107000D03*
X47300Y106700D03*
X52000Y138000D03*
X54000Y130000D03*
X45000Y186000D03*
Y195000D03*
Y210000D03*
X70000Y5000D03*
X75000Y25000D03*
X60000D03*
X75000Y40000D03*
Y55000D03*
X61000Y65000D03*
X65000Y85000D03*
X75000Y102000D03*
X70898Y107898D03*
X70000Y115000D03*
X61600Y120800D03*
X71300Y129000D03*
X68700Y137400D03*
X75000Y155000D03*
X60000D03*
X69800Y145500D03*
X75000Y170000D03*
X60000D03*
Y179000D03*
X75000Y195000D03*
X60000D03*
X75000Y210000D03*
X60000D03*
X85000Y5000D03*
X90000Y25000D03*
Y40000D03*
Y55000D03*
X77000Y92000D03*
Y106000D03*
Y98000D03*
X79000Y102000D03*
X84500Y108500D03*
X91000Y116000D03*
X88000Y115000D03*
X90228Y121228D03*
X85000Y130000D03*
Y140000D03*
X90000Y155000D03*
X85700Y145600D03*
X90000Y170000D03*
Y186000D03*
Y195000D03*
Y210000D03*
X100000Y5000D03*
X105000Y25000D03*
Y40000D03*
Y55000D03*
X93000Y75000D03*
X105000Y70000D03*
X93000Y88000D03*
X108000Y140000D03*
X97000D03*
X105000Y155000D03*
X108700Y145600D03*
X105000Y160000D03*
Y170000D03*
Y179000D03*
Y195000D03*
Y210000D03*
X115000Y5000D03*
X120000Y25000D03*
Y40000D03*
X123000Y44000D03*
X113000Y131000D03*
X125000Y140000D03*
X114000Y154000D03*
X123000Y149900D03*
X114000Y175000D03*
X120000Y186000D03*
Y195000D03*
Y210000D03*
X130000Y5000D03*
X135000Y25000D03*
X140000Y75000D03*
X130000D03*
X134000Y80000D03*
X128000Y101000D03*
X134000Y121000D03*
X129000Y110000D03*
X138000Y112000D03*
X140000Y139700D03*
X126000Y130000D03*
X132000D03*
Y138000D03*
X136000Y130000D03*
X139000Y150000D03*
X136800Y145700D03*
X126000Y156000D03*
X138000Y165000D03*
X135000Y166000D03*
X136000Y160000D03*
X140000D03*
X128657Y167657D03*
X135000Y190000D03*
Y177000D03*
Y195000D03*
Y210000D03*
X145000Y5000D03*
X150000Y25000D03*
Y77000D03*
X158000Y99000D03*
X146000D03*
X153000Y117000D03*
X156000Y121000D03*
X145000Y112000D03*
Y118000D03*
X147772Y121228D03*
X156000Y130000D03*
X144900Y132300D03*
X156200Y150100D03*
X147000Y161000D03*
X150000Y177000D03*
Y195000D03*
Y210000D03*
X160000Y5000D03*
X165000Y25000D03*
X164300Y111900D03*
X160000Y111200D03*
X159600Y140100D03*
X161300Y132400D03*
X165000Y137200D03*
X164350Y140050D03*
X173728Y152728D03*
X173780Y145780D03*
X171220D03*
X159000Y145600D03*
X165000Y152000D03*
Y195000D03*
Y210000D03*
X190000Y5000D03*
X175000D03*
X180000Y25000D03*
Y70000D03*
Y85000D03*
X175000Y98000D03*
X190000D03*
X176340Y114340D03*
X187200Y111900D03*
X185700Y138600D03*
X188300Y141300D03*
X186800Y145700D03*
X187000Y155000D03*
X184000Y175000D03*
X180000Y195000D03*
Y210000D03*
X195000Y25000D03*
Y70000D03*
Y85000D03*
X205000Y98000D03*
X198840Y114160D03*
X196228Y152772D03*
X196280Y145720D03*
X193720D03*
X195000Y195000D03*
Y210000D03*
X210000Y5000D03*
Y25000D03*
Y40000D03*
Y55000D03*
Y70000D03*
Y85000D03*
X220000Y98000D03*
X221840Y114160D03*
X208400Y112000D03*
X208900Y138700D03*
X211300Y141300D03*
X218728Y152728D03*
X216720Y145720D03*
X219280D03*
X208800Y143900D03*
X210000Y155000D03*
X215000Y195000D03*
Y210000D03*
X225000Y5000D03*
X240000Y25000D03*
X225000D03*
Y40000D03*
X240000D03*
X225000Y55000D03*
X240000D03*
Y70000D03*
X225000D03*
X240000Y85000D03*
X225000D03*
X235000Y98000D03*
X238000Y115000D03*
X233350Y110650D03*
X228800Y123800D03*
X235600Y126600D03*
X235100Y148200D03*
X235600Y169300D03*
X226000Y177000D03*
X230000Y195000D03*
Y210000D03*
X255000Y5000D03*
Y25000D03*
Y40000D03*
Y55000D03*
Y70000D03*
Y85000D03*
X250900Y179600D03*
X250000Y195000D03*
X270000Y5000D03*
Y25000D03*
X260000Y150000D03*
Y165000D03*
X265000Y175000D03*
X270000Y170000D03*
Y185000D03*
Y200000D03*
Y205000D03*
X265000Y200000D03*
X260000D03*
Y205000D03*
X285000Y130000D03*
X275000Y150000D03*
Y170000D03*
X280000D03*
X285000Y175000D03*
X280000Y185000D03*
X275000Y200000D03*
X280000D03*
Y205000D03*
X285000Y200000D03*
X290000Y9000D03*
Y30000D03*
Y70000D03*
Y85000D03*
Y135000D03*
Y150000D03*
Y165000D03*
Y200000D03*
Y205000D03*
G54D12*
X6000Y97000D03*
Y107000D03*
Y117000D03*
Y127000D03*
Y137000D03*
Y147000D03*
Y157000D03*
Y167000D03*
X26000Y97000D03*
Y107000D03*
X16000Y97000D03*
Y107000D03*
X26000Y117000D03*
Y127000D03*
X16000Y117000D03*
Y127000D03*
X26000Y137000D03*
X16000D03*
X26000Y147000D03*
Y157000D03*
X16000Y147000D03*
Y157000D03*
X26000Y167000D03*
X37500Y62500D03*
X36000Y97000D03*
Y107000D03*
Y117000D03*
Y127000D03*
Y137000D03*
Y147000D03*
Y157000D03*
X102000Y104000D03*
Y114000D03*
X123000Y105000D03*
Y115000D03*
X175300Y49000D03*
X178000Y162000D03*
X201000D03*
X224000D03*
X289000Y39500D03*
G54D13*
X16000Y167000D03*
X37500Y72500D03*
X36000Y167000D03*
X102000Y124000D03*
X123000Y95000D03*
X165300Y49000D03*
X168000Y162000D03*
X191000D03*
X214000D03*
X289000Y49500D03*
G54D14*
X254969Y105669D03*
Y125354D03*
X274654D03*
G54D15*
Y105669D03*
G54D16*
G01X382311Y-186858D02*
Y-66858D01*
X12311D01*
Y-186858D01*
X382311D01*
G01X15278Y-104358D02*
Y-99358D01*
X16444D01*
X16911Y-99608D01*
X17261Y-99942D01*
X17553Y-100442D01*
X17786Y-101025D01*
X17844Y-101858D01*
X17786Y-102692D01*
X17553Y-103275D01*
X17261Y-103775D01*
X16911Y-104108D01*
X16444Y-104358D01*
X15278D01*
G01X22228D02*
X19894D01*
Y-99358D01*
X22228D01*
G01X21294Y-101775D02*
X19894D01*
G01X24336Y-103692D02*
X24803Y-104108D01*
X25328Y-104358D01*
X25794D01*
X26261Y-104108D01*
X26611Y-103692D01*
X26786Y-103108D01*
X26669Y-102525D01*
X26378Y-102025D01*
X25853Y-101692D01*
X25153Y-101525D01*
X24744Y-101192D01*
X24569Y-100608D01*
X24686Y-100025D01*
X24978Y-99608D01*
X25386Y-99358D01*
X25794D01*
X26203Y-99525D01*
X26553Y-99942D01*
G01X29361Y-99358D02*
X30761D01*
G01X30061D02*
Y-104358D01*
G01X29361D02*
X30761D01*
G01X34911Y-101858D02*
X36078D01*
Y-103358D01*
X35728Y-103858D01*
X35319Y-104192D01*
X34736Y-104358D01*
X34153Y-104192D01*
X33744Y-103858D01*
X33394Y-103358D01*
X33161Y-102775D01*
X33044Y-102108D01*
Y-101525D01*
X33161Y-101025D01*
X33394Y-100442D01*
X33744Y-99942D01*
X34094Y-99608D01*
X34561Y-99358D01*
X34969D01*
X35436Y-99525D01*
X35786Y-99858D01*
G01X37719Y-104358D02*
Y-99358D01*
X40403Y-104358D01*
Y-99358D01*
G01X44728Y-104358D02*
X42394D01*
Y-99358D01*
X44728D01*
G01X43794Y-101775D02*
X42394D01*
G01X46778Y-104358D02*
Y-99358D01*
X47944D01*
X48411Y-99608D01*
X48761Y-99942D01*
X49053Y-100442D01*
X49286Y-101025D01*
X49344Y-101858D01*
X49286Y-102692D01*
X49053Y-103275D01*
X48761Y-103775D01*
X48411Y-104108D01*
X47944Y-104358D01*
X46778D01*
G01X57528Y-101692D02*
X57761Y-101442D01*
X57936Y-101025D01*
X58053Y-100442D01*
X57936Y-99942D01*
X57703Y-99608D01*
X57294Y-99358D01*
X55719D01*
Y-104358D01*
X57644D01*
X58053Y-104025D01*
X58286Y-103525D01*
X58403Y-102942D01*
X58286Y-102358D01*
X57936Y-101858D01*
X57528Y-101692D01*
X55719D01*
G01X61561Y-104358D02*
Y-102108D01*
X60394Y-99358D01*
G01X62728D02*
X61561Y-102108D01*
G01X12311Y-96858D02*
X382311D01*
G01X17844Y-69775D02*
X17494Y-69525D01*
X17086Y-69358D01*
X16619D01*
X16094Y-69608D01*
X15686Y-70025D01*
X15394Y-70525D01*
X15161Y-71358D01*
X15103Y-72108D01*
X15219Y-72858D01*
X15394Y-73358D01*
X15744Y-73858D01*
X16153Y-74192D01*
X16561Y-74358D01*
X16969D01*
X17378Y-74192D01*
X17728Y-73942D01*
X18019Y-73609D01*
G01X19778Y-69358D02*
Y-72942D01*
X20011Y-73692D01*
X20478Y-74192D01*
X21061Y-74358D01*
X21644Y-74192D01*
X22111Y-73692D01*
X22344Y-72942D01*
Y-69358D01*
G01X24336Y-73692D02*
X24803Y-74108D01*
X25328Y-74358D01*
X25794D01*
X26261Y-74108D01*
X26611Y-73692D01*
X26786Y-73108D01*
X26669Y-72525D01*
X26378Y-72025D01*
X25853Y-71692D01*
X25153Y-71525D01*
X24744Y-71192D01*
X24569Y-70608D01*
X24686Y-70025D01*
X24978Y-69608D01*
X25386Y-69358D01*
X25794D01*
X26203Y-69525D01*
X26553Y-69942D01*
G01X30061Y-69358D02*
Y-74358D01*
G01X28719Y-69358D02*
X31403D01*
G01X34561Y-74358D02*
X34094Y-74275D01*
X33686Y-73942D01*
X33336Y-73442D01*
X33103Y-72858D01*
X32986Y-72192D01*
Y-71525D01*
X33103Y-70858D01*
X33336Y-70275D01*
X33686Y-69775D01*
X34094Y-69442D01*
X34561Y-69358D01*
X35028Y-69442D01*
X35436Y-69775D01*
X35786Y-70275D01*
X36019Y-70858D01*
X36136Y-71525D01*
Y-72192D01*
X36019Y-72858D01*
X35786Y-73442D01*
X35436Y-73942D01*
X35028Y-74275D01*
X34561Y-74358D01*
G01X37544D02*
Y-69358D01*
X39061Y-73525D01*
X40578Y-69358D01*
Y-74358D01*
G01X44728D02*
X42394D01*
Y-69358D01*
X44728D01*
G01X43794Y-71775D02*
X42394D01*
G01X46894Y-74358D02*
Y-69358D01*
X48353D01*
X48819Y-69608D01*
X49111Y-69942D01*
X49228Y-70608D01*
X49111Y-71275D01*
X48761Y-71692D01*
X48353Y-71942D01*
X46894D01*
G01X48353D02*
X49228Y-74358D01*
G01X75711Y-88292D02*
X76511Y-88958D01*
X77411Y-89358D01*
X78211D01*
X79011Y-88958D01*
X79611Y-88292D01*
X79911Y-87358D01*
X79711Y-86425D01*
X79211Y-85625D01*
X78311Y-85092D01*
X77111Y-84825D01*
X76411Y-84292D01*
X76111Y-83358D01*
X76311Y-82425D01*
X76811Y-81758D01*
X77511Y-81358D01*
X78211D01*
X78911Y-81625D01*
X79511Y-82292D01*
G01X87811Y-89358D02*
X83811D01*
Y-81358D01*
X87811D01*
G01X86211Y-85225D02*
X83811D01*
G01X91211Y-89358D02*
Y-81358D01*
X93811Y-88025D01*
X96411Y-81358D01*
Y-89358D01*
G01X101811Y-81358D02*
Y-89358D01*
G01X99511Y-81358D02*
X104111D01*
G01X111811Y-89358D02*
X107811D01*
Y-81358D01*
X111811D01*
G01X110211Y-85225D02*
X107811D01*
G01X120011Y-82025D02*
X119411Y-81625D01*
X118711Y-81358D01*
X117911D01*
X117011Y-81758D01*
X116311Y-82425D01*
X115811Y-83225D01*
X115411Y-84558D01*
X115311Y-85758D01*
X115511Y-86958D01*
X115811Y-87758D01*
X116411Y-88558D01*
X117111Y-89092D01*
X117811Y-89358D01*
X118511D01*
X119211Y-89092D01*
X119811Y-88692D01*
X120311Y-88159D01*
G01X123711Y-89358D02*
Y-81358D01*
G01X127911D02*
Y-89358D01*
G01Y-85358D02*
X123711D01*
G01X212311Y-139358D02*
Y-186858D01*
G01Y-159358D02*
X382311D01*
G01X215103Y-151858D02*
X216561Y-146858D01*
X218019Y-151858D01*
G01X217494Y-150108D02*
X215628D01*
G01X219894Y-151858D02*
Y-146858D01*
X221353D01*
X221819Y-147108D01*
X222111Y-147442D01*
X222228Y-148108D01*
X222111Y-148775D01*
X221761Y-149192D01*
X221353Y-149442D01*
X219894D01*
G01X221353D02*
X222228Y-151858D01*
G01X225561Y-146858D02*
Y-151858D01*
G01X224219Y-146858D02*
X226903D01*
G01X228311D02*
X229128Y-151858D01*
X230061Y-146858D01*
X230994Y-151858D01*
X231811Y-146858D01*
G01X234561Y-151858D02*
X234094Y-151775D01*
X233686Y-151442D01*
X233336Y-150942D01*
X233103Y-150358D01*
X232986Y-149692D01*
Y-149025D01*
X233103Y-148358D01*
X233336Y-147775D01*
X233686Y-147275D01*
X234094Y-146942D01*
X234561Y-146858D01*
X235028Y-146942D01*
X235436Y-147275D01*
X235786Y-147775D01*
X236019Y-148358D01*
X236136Y-149025D01*
Y-149692D01*
X236019Y-150358D01*
X235786Y-150942D01*
X235436Y-151442D01*
X235028Y-151775D01*
X234561Y-151858D01*
G01X237894D02*
Y-146858D01*
X239353D01*
X239819Y-147108D01*
X240111Y-147442D01*
X240228Y-148108D01*
X240111Y-148775D01*
X239761Y-149192D01*
X239353Y-149442D01*
X237894D01*
G01X239353D02*
X240228Y-151858D01*
G01X242278D02*
Y-146858D01*
G01X244494D02*
X242278Y-149942D01*
G01X244844Y-151858D02*
X243269Y-148525D01*
G01X251278Y-151858D02*
Y-146858D01*
X252444D01*
X252911Y-147108D01*
X253261Y-147442D01*
X253553Y-147942D01*
X253786Y-148525D01*
X253844Y-149358D01*
X253786Y-150192D01*
X253553Y-150775D01*
X253261Y-151275D01*
X252911Y-151608D01*
X252444Y-151858D01*
X251278D01*
G01X255603D02*
X257061Y-146858D01*
X258519Y-151858D01*
G01X257994Y-150108D02*
X256128D01*
G01X261561Y-146858D02*
Y-151858D01*
G01X260219Y-146858D02*
X262903D01*
G01X267228Y-151858D02*
X264894D01*
Y-146858D01*
X267228D01*
G01X266294Y-149275D02*
X264894D01*
G01X212311Y-139358D02*
X382311D01*
G01X212311Y-66858D02*
Y-139358D01*
G01X215394Y-130858D02*
X215686Y-131358D01*
X216036Y-131692D01*
X216444Y-131858D01*
X216911Y-131692D01*
X217261Y-131358D01*
X217611Y-130858D01*
X217728Y-130192D01*
Y-126858D01*
G01X221061Y-131858D02*
X220594Y-131775D01*
X220186Y-131442D01*
X219836Y-130942D01*
X219603Y-130358D01*
X219486Y-129692D01*
Y-129025D01*
X219603Y-128358D01*
X219836Y-127775D01*
X220186Y-127275D01*
X220594Y-126942D01*
X221061Y-126858D01*
X221528Y-126942D01*
X221936Y-127275D01*
X222286Y-127775D01*
X222519Y-128358D01*
X222636Y-129025D01*
Y-129692D01*
X222519Y-130358D01*
X222286Y-130942D01*
X221936Y-131442D01*
X221528Y-131775D01*
X221061Y-131858D01*
G01X226028Y-129192D02*
X226261Y-128942D01*
X226436Y-128525D01*
X226553Y-127942D01*
X226436Y-127442D01*
X226203Y-127108D01*
X225794Y-126858D01*
X224219D01*
Y-131858D01*
X226144D01*
X226553Y-131525D01*
X226786Y-131025D01*
X226903Y-130442D01*
X226786Y-129858D01*
X226436Y-129358D01*
X226028Y-129192D01*
X224219D01*
G01X233394Y-133525D02*
X234561Y-126858D01*
G01X235728D02*
X234561Y-133525D01*
G01X232811Y-131025D02*
X236311D01*
G01Y-129358D02*
X232811D01*
G01X217028Y-101692D02*
X217261Y-101442D01*
X217436Y-101025D01*
X217553Y-100442D01*
X217436Y-99942D01*
X217203Y-99608D01*
X216794Y-99358D01*
X215219D01*
Y-104358D01*
X217144D01*
X217553Y-104025D01*
X217786Y-103525D01*
X217903Y-102942D01*
X217786Y-102358D01*
X217436Y-101858D01*
X217028Y-101692D01*
X215219D01*
G01X221061Y-104358D02*
X220594Y-104275D01*
X220186Y-103942D01*
X219836Y-103442D01*
X219603Y-102858D01*
X219486Y-102192D01*
Y-101525D01*
X219603Y-100858D01*
X219836Y-100275D01*
X220186Y-99775D01*
X220594Y-99442D01*
X221061Y-99358D01*
X221528Y-99442D01*
X221936Y-99775D01*
X222286Y-100275D01*
X222519Y-100858D01*
X222636Y-101525D01*
Y-102192D01*
X222519Y-102858D01*
X222286Y-103442D01*
X221936Y-103942D01*
X221528Y-104275D01*
X221061Y-104358D01*
G01X224103D02*
X225561Y-99358D01*
X227019Y-104358D01*
G01X226494Y-102608D02*
X224628D01*
G01X228894Y-104358D02*
Y-99358D01*
X230353D01*
X230819Y-99608D01*
X231111Y-99942D01*
X231228Y-100608D01*
X231111Y-101275D01*
X230761Y-101692D01*
X230353Y-101942D01*
X228894D01*
G01X230353D02*
X231228Y-104358D01*
G01X233278D02*
Y-99358D01*
X234444D01*
X234911Y-99608D01*
X235261Y-99942D01*
X235553Y-100442D01*
X235786Y-101025D01*
X235844Y-101858D01*
X235786Y-102692D01*
X235553Y-103275D01*
X235261Y-103775D01*
X234911Y-104108D01*
X234444Y-104358D01*
X233278D01*
G01X242219D02*
Y-99358D01*
X244903Y-104358D01*
Y-99358D01*
G01X246603Y-104358D02*
X248061Y-99358D01*
X249519Y-104358D01*
G01X248994Y-102608D02*
X247128D01*
G01X251044Y-104358D02*
Y-99358D01*
X252561Y-103525D01*
X254078Y-99358D01*
Y-104358D01*
G01X258228D02*
X255894D01*
Y-99358D01*
X258228D01*
G01X257294Y-101775D02*
X255894D01*
G01X212311Y-121858D02*
X382311D01*
G01X215394Y-74358D02*
Y-69358D01*
X216794D01*
X217261Y-69608D01*
X217611Y-70192D01*
X217728Y-70858D01*
X217611Y-71525D01*
X217319Y-72025D01*
X216794Y-72275D01*
X215394D01*
G01X219603Y-74358D02*
X221061Y-69358D01*
X222519Y-74358D01*
G01X221994Y-72608D02*
X220128D01*
G01X224394Y-74358D02*
Y-69358D01*
X225853D01*
X226319Y-69608D01*
X226611Y-69942D01*
X226728Y-70608D01*
X226611Y-71275D01*
X226261Y-71692D01*
X225853Y-71942D01*
X224394D01*
G01X225853D02*
X226728Y-74358D01*
G01X230061Y-69358D02*
Y-74358D01*
G01X228719Y-69358D02*
X231403D01*
G01X237719Y-74358D02*
Y-69358D01*
X240403Y-74358D01*
Y-69358D01*
G01X243561Y-74358D02*
X243094Y-74275D01*
X242686Y-73942D01*
X242336Y-73442D01*
X242103Y-72858D01*
X241986Y-72192D01*
Y-71525D01*
X242103Y-70858D01*
X242336Y-70275D01*
X242686Y-69775D01*
X243094Y-69442D01*
X243561Y-69358D01*
X244028Y-69442D01*
X244436Y-69775D01*
X244786Y-70275D01*
X245019Y-70858D01*
X245136Y-71525D01*
Y-72192D01*
X245019Y-72858D01*
X244786Y-73442D01*
X244436Y-73942D01*
X244028Y-74275D01*
X243561Y-74358D01*
G01X247011Y-74525D02*
X249111Y-69358D01*
G01X251394Y-74358D02*
Y-69358D01*
X252853D01*
X253319Y-69608D01*
X253611Y-69942D01*
X253728Y-70608D01*
X253611Y-71275D01*
X253261Y-71692D01*
X252853Y-71942D01*
X251394D01*
G01X252853D02*
X253728Y-74358D01*
G01X258228D02*
X255894D01*
Y-69358D01*
X258228D01*
G01X257294Y-71775D02*
X255894D01*
G01X260103Y-69358D02*
X261561Y-74358D01*
X263019Y-69358D01*
G01X233711Y-171358D02*
Y-179358D01*
X237711D01*
G01X244911D02*
Y-171358D01*
X241211Y-177092D01*
X246211D01*
G01X248711Y-182025D02*
X254711D01*
G01X260511Y-175092D02*
X260911Y-174692D01*
X261211Y-174025D01*
X261411Y-173092D01*
X261211Y-172292D01*
X260811Y-171758D01*
X260111Y-171358D01*
X257411D01*
Y-179358D01*
X260711D01*
X261411Y-178825D01*
X261811Y-178025D01*
X262011Y-177092D01*
X261811Y-176159D01*
X261211Y-175358D01*
X260511Y-175092D01*
X257411D01*
G01X267711Y-179358D02*
X266911Y-179225D01*
X266211Y-178692D01*
X265611Y-177892D01*
X265211Y-176958D01*
X265011Y-175892D01*
Y-174825D01*
X265211Y-173758D01*
X265611Y-172825D01*
X266211Y-172025D01*
X266911Y-171492D01*
X267711Y-171358D01*
X268511Y-171492D01*
X269211Y-172025D01*
X269811Y-172825D01*
X270211Y-173758D01*
X270411Y-174825D01*
Y-175892D01*
X270211Y-176958D01*
X269811Y-177892D01*
X269211Y-178692D01*
X268511Y-179225D01*
X267711Y-179358D01*
G01X275711Y-171358D02*
Y-179358D01*
G01X273411Y-171358D02*
X278011D01*
G01X283711D02*
Y-179358D01*
G01X281411Y-171358D02*
X286011D01*
G01X291711Y-179358D02*
X290911Y-179225D01*
X290211Y-178692D01*
X289611Y-177892D01*
X289211Y-176958D01*
X289011Y-175892D01*
Y-174825D01*
X289211Y-173758D01*
X289611Y-172825D01*
X290211Y-172025D01*
X290911Y-171492D01*
X291711Y-171358D01*
X292511Y-171492D01*
X293211Y-172025D01*
X293811Y-172825D01*
X294211Y-173758D01*
X294411Y-174825D01*
Y-175892D01*
X294211Y-176958D01*
X293811Y-177892D01*
X293211Y-178692D01*
X292511Y-179225D01*
X291711Y-179358D01*
G01X297111D02*
Y-171358D01*
X299711Y-178025D01*
X302311Y-171358D01*
Y-179358D01*
G01X236200Y-108667D02*
X235600Y-108267D01*
X234900Y-108000D01*
X234100D01*
X233200Y-108400D01*
X232500Y-109067D01*
X232000Y-109867D01*
X231600Y-111200D01*
X231500Y-112400D01*
X231700Y-113600D01*
X232000Y-114400D01*
X232600Y-115200D01*
X233300Y-115733D01*
X234000Y-116000D01*
X234700D01*
X235400Y-115733D01*
X236000Y-115334D01*
X236500Y-114800D01*
G01X239400Y-116000D02*
Y-108000D01*
X242000Y-114667D01*
X244600Y-108000D01*
Y-116000D01*
G01X247000Y-118667D02*
X253000D01*
G01X256000Y-116000D02*
Y-108000D01*
X258400D01*
X259200Y-108400D01*
X259800Y-109333D01*
X260000Y-110400D01*
X259800Y-111467D01*
X259300Y-112267D01*
X258400Y-112667D01*
X256000D01*
G01X268200Y-108667D02*
X267600Y-108267D01*
X266900Y-108000D01*
X266100D01*
X265200Y-108400D01*
X264500Y-109067D01*
X264000Y-109867D01*
X263600Y-111200D01*
X263500Y-112400D01*
X263700Y-113600D01*
X264000Y-114400D01*
X264600Y-115200D01*
X265300Y-115733D01*
X266000Y-116000D01*
X266700D01*
X267400Y-115733D01*
X268000Y-115334D01*
X268500Y-114800D01*
G01X274800Y-111733D02*
X275200Y-111333D01*
X275500Y-110667D01*
X275700Y-109733D01*
X275500Y-108933D01*
X275100Y-108400D01*
X274400Y-108000D01*
X271700D01*
Y-116000D01*
X275000D01*
X275700Y-115467D01*
X276100Y-114667D01*
X276300Y-113733D01*
X276100Y-112800D01*
X275500Y-112000D01*
X274800Y-111733D01*
X271700D01*
G01X279000Y-118667D02*
X285000D01*
G01X287500Y-108000D02*
X290000Y-116000D01*
X292500Y-108000D01*
G01X296100Y-109333D02*
X296700Y-108534D01*
X297400Y-108133D01*
X298200Y-108000D01*
X299200Y-108267D01*
X299900Y-108933D01*
X300100Y-109733D01*
X300000Y-110534D01*
X299600Y-111200D01*
X297600Y-112533D01*
X296700Y-113467D01*
X296100Y-114800D01*
X295900Y-116000D01*
X300100D01*
G01X271000Y-88500D02*
Y-80500D01*
X273400D01*
X274200Y-80900D01*
X274800Y-81833D01*
X275000Y-82900D01*
X274800Y-83967D01*
X274300Y-84767D01*
X273400Y-85167D01*
X271000D01*
G01X278500Y-88500D02*
X281000Y-80500D01*
X283500Y-88500D01*
G01X282600Y-85700D02*
X279400D01*
G01X287000Y-88500D02*
Y-80500D01*
X289500D01*
X290300Y-80900D01*
X290800Y-81433D01*
X291000Y-82500D01*
X290800Y-83567D01*
X290200Y-84233D01*
X289500Y-84633D01*
X287000D01*
G01X289500D02*
X291000Y-88500D01*
G01X297000Y-80500D02*
Y-88500D01*
G01X294700Y-80500D02*
X299300D01*
G01X310700Y-88500D02*
Y-80500D01*
X315300Y-88500D01*
Y-80500D01*
G01X318800D02*
Y-86233D01*
X319200Y-87434D01*
X320000Y-88233D01*
X321000Y-88500D01*
X322000Y-88233D01*
X322800Y-87434D01*
X323200Y-86233D01*
Y-80500D01*
G01X326400Y-88500D02*
Y-80500D01*
X329000Y-87167D01*
X331600Y-80500D01*
Y-88500D01*
G01X337800Y-84233D02*
X338200Y-83833D01*
X338500Y-83167D01*
X338700Y-82233D01*
X338500Y-81433D01*
X338100Y-80900D01*
X337400Y-80500D01*
X334700D01*
Y-88500D01*
X338000D01*
X338700Y-87967D01*
X339100Y-87167D01*
X339300Y-86233D01*
X339100Y-85300D01*
X338500Y-84500D01*
X337800Y-84233D01*
X334700D01*
G01X347000Y-88500D02*
X343000D01*
Y-80500D01*
X347000D01*
G01X345400Y-84367D02*
X343000D01*
G01X351000Y-88500D02*
Y-80500D01*
X353500D01*
X354300Y-80900D01*
X354800Y-81433D01*
X355000Y-82500D01*
X354800Y-83567D01*
X354200Y-84233D01*
X353500Y-84633D01*
X351000D01*
G01X353500D02*
X355000Y-88500D01*
G01X297811Y-146358D02*
X297011Y-146625D01*
X296411Y-147292D01*
X296011Y-148092D01*
X295711Y-149158D01*
X295611Y-150358D01*
X295711Y-151558D01*
X296011Y-152625D01*
X296411Y-153425D01*
X297011Y-154092D01*
X297811Y-154358D01*
X298611Y-154092D01*
X299211Y-153425D01*
X299611Y-152625D01*
X299911Y-151558D01*
X300011Y-150358D01*
X299911Y-149158D01*
X299611Y-148092D01*
X299211Y-147292D01*
X298611Y-146625D01*
X297811Y-146358D01*
G01X303611Y-152758D02*
X304211Y-153692D01*
X305011Y-154225D01*
X305911Y-154358D01*
X306711Y-154225D01*
X307511Y-153558D01*
X308011Y-152758D01*
X308111Y-151958D01*
X307911Y-151025D01*
X307211Y-150358D01*
X306511Y-150092D01*
X305611D01*
G01X306511D02*
X307111Y-149692D01*
X307611Y-149025D01*
X307811Y-148225D01*
X307611Y-147425D01*
X307111Y-146758D01*
X306211Y-146358D01*
X305311Y-146492D01*
X304411Y-147025D01*
G01X311311Y-154358D02*
X313811Y-146358D01*
X316311Y-154358D01*
G01X315411Y-151558D02*
X312211D01*
G01X319811Y-154358D02*
Y-146358D01*
X322211D01*
X323011Y-146758D01*
X323611Y-147692D01*
X323811Y-148758D01*
X323611Y-149825D01*
X323111Y-150625D01*
X322211Y-151025D01*
X319811D01*
G01X327811Y-154358D02*
Y-146358D01*
X330311D01*
X331111Y-146758D01*
X331611Y-147292D01*
X331811Y-148358D01*
X331611Y-149425D01*
X331011Y-150092D01*
X330311Y-150492D01*
X327811D01*
G01X330311D02*
X331811Y-154358D01*
G01X335911Y-147692D02*
X336511Y-146892D01*
X337211Y-146492D01*
X338011Y-146358D01*
X339011Y-146625D01*
X339711Y-147292D01*
X339911Y-148092D01*
X339811Y-148892D01*
X339411Y-149558D01*
X337411Y-150892D01*
X336511Y-151825D01*
X335911Y-153159D01*
X335711Y-154358D01*
X339911D01*
G01X345811Y-146358D02*
X345011Y-146625D01*
X344411Y-147292D01*
X344011Y-148092D01*
X343711Y-149158D01*
X343611Y-150358D01*
X343711Y-151558D01*
X344011Y-152625D01*
X344411Y-153425D01*
X345011Y-154092D01*
X345811Y-154358D01*
X346611Y-154092D01*
X347211Y-153425D01*
X347611Y-152625D01*
X347911Y-151558D01*
X348011Y-150358D01*
X347911Y-149158D01*
X347611Y-148092D01*
X347211Y-147292D01*
X346611Y-146625D01*
X345811Y-146358D01*
G01X353811Y-154358D02*
Y-146358D01*
X352611Y-147958D01*
G01Y-154358D02*
X355011D01*
G01X360111Y-153425D02*
X360811Y-154092D01*
X361611Y-154358D01*
X362411Y-154092D01*
X363111Y-153292D01*
X363611Y-152092D01*
X363811Y-150892D01*
Y-149425D01*
X363611Y-148225D01*
X363111Y-147158D01*
X362511Y-146625D01*
X361811Y-146358D01*
X361011Y-146625D01*
X360411Y-147158D01*
X360011Y-147958D01*
X359811Y-149025D01*
X360011Y-149958D01*
X360511Y-150892D01*
X361111Y-151425D01*
X361811Y-151558D01*
X362611Y-151292D01*
X363211Y-150625D01*
X363811Y-149425D01*
G01X318011Y-131692D02*
X320611D01*
G01X0Y7874D02*
Y150000D01*
Y200000D01*
Y200787D01*
Y208661D01*
G02X7874Y216535I7874J0D01*
G01X291339D01*
G02X299213Y208661I0J-7874D01*
G01Y7874D01*
G02X291339Y0I-7874J0D01*
G01X7874D01*
G02X0Y7874I0J7874D01*
G54D17*
G01X84500Y108500D02*
Y89500D01*
X86000Y88000D01*
X93000D01*
G01X138000Y112000D02*
Y129000D01*
X137000Y130000D01*
X136000D01*
M02*
