G04 ================== begin FILE IDENTIFICATION RECORD ==================*
G04 Layout Name:  CM_PCB_V2_03APR2019.brd*
G04 Film Name:    MASK_TOP*
G04 File Format:  Gerber RS274X*
G04 File Origin:  Cadence Allegro 17.2-S036*
G04 Origin Date:  Wed Apr 03 12:04:17 2019*
G04 *
G04 Layer:  BOARD GEOMETRY/SOLDERMASK_TOP*
G04 Layer:  PIN/SOLDERMASK_TOP*
G04 Layer:  PACKAGE GEOMETRY/SOLDERMASK_TOP*
G04 Layer:  DRAWING FORMAT/TITLE_BLOCK*
G04 Layer:  BOARD GEOMETRY/OUTLINE*
G04 *
G04 Offset:    (0.000 0.000)*
G04 Mirror:    No*
G04 Mode:      Positive*
G04 Rotation:  0*
G04 FullContactRelief:  No*
G04 UndefLineWidth:     5.000*
G04 ================== end FILE IDENTIFICATION RECORD ====================*
%FSLAX25Y25*MOIN*%
%IR0*IPPOS*OFA0.00000B0.00000*MIA0B0*SFA1.00000B1.00000*%
%ADD25R,.055969X.044157*%
%ADD10C,.122*%
%ADD18R,.068898X.098425*%
%ADD22R,.029716X.009842*%
%ADD11C,.064*%
%ADD17R,.0355X.0335*%
%ADD14C,.06402*%
%ADD19R,.043311X.02165*%
%ADD26C,.077*%
%ADD13R,.064X.064*%
%ADD12R,.0235X.0235*%
%ADD15R,.06402X.06402*%
%ADD27R,.077X.077*%
%ADD16R,.061811X.086614*%
%ADD20R,.031496X.031496*%
%ADD21R,.04724X.062988*%
%ADD23R,.03937X.062992*%
%ADD24R,.016929X.062992*%
%ADD28C,.005*%
G75*
%LPD*%
G75*
G36*
G01X134028Y156610D02*
X128831D01*
Y161256D01*
X134028D01*
Y156610D01*
G37*
G54D10*
X11811Y11811D03*
Y204724D03*
X240157Y11811D03*
Y204724D03*
G54D20*
X93000Y79047D03*
Y84953D03*
X150000Y81047D03*
Y86953D03*
G54D11*
X6000Y97000D03*
Y107000D03*
Y117000D03*
Y127000D03*
Y137000D03*
Y147000D03*
Y157000D03*
Y167000D03*
X26000Y97000D03*
Y107000D03*
X16000Y97000D03*
Y107000D03*
X26000Y117000D03*
Y127000D03*
X16000Y117000D03*
Y127000D03*
X26000Y137000D03*
X16000D03*
X26000Y147000D03*
Y157000D03*
X16000Y147000D03*
Y157000D03*
X26000Y167000D03*
X36000Y97000D03*
Y107000D03*
Y117000D03*
Y127000D03*
Y137000D03*
Y147000D03*
Y157000D03*
G54D21*
X138094Y105000D03*
X149906D03*
X164594D03*
X176406D03*
X187094D03*
X198906D03*
X209594D03*
X221406D03*
G54D12*
X18854Y103433D03*
X22398D03*
X18854Y93433D03*
X22398D03*
X18854Y113433D03*
X22398D03*
X73772Y92000D03*
X70228D03*
X65000Y98228D03*
Y101772D03*
Y105228D03*
Y108772D03*
X88000Y94228D03*
Y97772D03*
X84000Y123772D03*
Y120228D03*
X93000Y90228D03*
Y101772D03*
Y98228D03*
Y108772D03*
Y105228D03*
Y93772D03*
Y115772D03*
Y112228D03*
Y124772D03*
Y121228D03*
X114000Y157228D03*
X118000D03*
X114000Y160772D03*
X118000D03*
X136000Y124228D03*
X132000D03*
X140000D03*
X136000Y127772D03*
X132000D03*
X140000D03*
X139000Y153228D03*
Y156772D03*
X132201Y164933D03*
X128657D03*
X140228Y165000D03*
X150000Y94728D03*
Y98272D03*
X144228Y124000D03*
X147772D03*
X156000Y124228D03*
X152000D03*
X156000Y127772D03*
X152000D03*
X144000Y157228D03*
Y160772D03*
X143772Y165000D03*
X173728Y150000D03*
X177272D03*
X196228D03*
X199772D03*
X218728D03*
X222272D03*
X228800Y121172D03*
Y117628D03*
X228900Y112972D03*
Y109428D03*
G54D13*
X16000Y167000D03*
X36000D03*
G54D22*
X140866Y112047D03*
Y114016D03*
Y115984D03*
Y117953D03*
X149134D03*
Y115984D03*
Y114016D03*
Y112047D03*
G54D23*
X145000Y115000D03*
G54D14*
X37500Y62500D03*
X102000Y104000D03*
Y114000D03*
X123000Y105000D03*
Y115000D03*
X175300Y49000D03*
X178000Y162000D03*
X201000D03*
X224000D03*
X289000Y39500D03*
G54D24*
X173780Y118700D03*
X171220D03*
X168660D03*
X168660Y141300D03*
X171220D03*
X173780D03*
X176340Y118700D03*
Y141300D03*
X198840Y118700D03*
X196280D03*
X193720D03*
X191160D03*
X191160Y141300D03*
X193720D03*
X196280D03*
X198840D03*
X221840Y118700D03*
X219280D03*
X216720D03*
X214160D03*
X214160Y141300D03*
X216720D03*
X219280D03*
X221840D03*
G54D15*
X37500Y72500D03*
X102000Y124000D03*
X123000Y95000D03*
X165300Y49000D03*
X168000Y162000D03*
X191000D03*
X214000D03*
X289000Y49500D03*
G54D16*
X51185Y56661D03*
Y73591D03*
X134000Y55535D03*
Y72465D03*
G54D25*
X238000Y104350D03*
Y110650D03*
X278154Y43535D03*
Y49835D03*
G54D26*
X254969Y105669D03*
Y125354D03*
X274654D03*
G54D17*
X59000Y98343D03*
Y103657D03*
X61000Y73657D03*
Y68343D03*
X123000Y52657D03*
Y47343D03*
X134000Y112343D03*
Y117657D03*
X156000Y112343D03*
Y117657D03*
G54D27*
X274654Y105669D03*
G54D18*
X77000Y102000D03*
G54D28*
G01X382311Y-186858D02*
Y-66858D01*
X12311D01*
Y-186858D01*
X382311D01*
G01X15278Y-104358D02*
Y-99358D01*
X16444D01*
X16911Y-99608D01*
X17261Y-99942D01*
X17553Y-100442D01*
X17786Y-101025D01*
X17844Y-101858D01*
X17786Y-102692D01*
X17553Y-103275D01*
X17261Y-103775D01*
X16911Y-104108D01*
X16444Y-104358D01*
X15278D01*
G01X22228D02*
X19894D01*
Y-99358D01*
X22228D01*
G01X21294Y-101775D02*
X19894D01*
G01X24336Y-103692D02*
X24803Y-104108D01*
X25328Y-104358D01*
X25794D01*
X26261Y-104108D01*
X26611Y-103692D01*
X26786Y-103108D01*
X26669Y-102525D01*
X26378Y-102025D01*
X25853Y-101692D01*
X25153Y-101525D01*
X24744Y-101192D01*
X24569Y-100608D01*
X24686Y-100025D01*
X24978Y-99608D01*
X25386Y-99358D01*
X25794D01*
X26203Y-99525D01*
X26553Y-99942D01*
G01X29361Y-99358D02*
X30761D01*
G01X30061D02*
Y-104358D01*
G01X29361D02*
X30761D01*
G01X34911Y-101858D02*
X36078D01*
Y-103358D01*
X35728Y-103858D01*
X35319Y-104192D01*
X34736Y-104358D01*
X34153Y-104192D01*
X33744Y-103858D01*
X33394Y-103358D01*
X33161Y-102775D01*
X33044Y-102108D01*
Y-101525D01*
X33161Y-101025D01*
X33394Y-100442D01*
X33744Y-99942D01*
X34094Y-99608D01*
X34561Y-99358D01*
X34969D01*
X35436Y-99525D01*
X35786Y-99858D01*
G01X37719Y-104358D02*
Y-99358D01*
X40403Y-104358D01*
Y-99358D01*
G01X44728Y-104358D02*
X42394D01*
Y-99358D01*
X44728D01*
G01X43794Y-101775D02*
X42394D01*
G01X46778Y-104358D02*
Y-99358D01*
X47944D01*
X48411Y-99608D01*
X48761Y-99942D01*
X49053Y-100442D01*
X49286Y-101025D01*
X49344Y-101858D01*
X49286Y-102692D01*
X49053Y-103275D01*
X48761Y-103775D01*
X48411Y-104108D01*
X47944Y-104358D01*
X46778D01*
G01X57528Y-101692D02*
X57761Y-101442D01*
X57936Y-101025D01*
X58053Y-100442D01*
X57936Y-99942D01*
X57703Y-99608D01*
X57294Y-99358D01*
X55719D01*
Y-104358D01*
X57644D01*
X58053Y-104025D01*
X58286Y-103525D01*
X58403Y-102942D01*
X58286Y-102358D01*
X57936Y-101858D01*
X57528Y-101692D01*
X55719D01*
G01X61561Y-104358D02*
Y-102108D01*
X60394Y-99358D01*
G01X62728D02*
X61561Y-102108D01*
G01X12311Y-96858D02*
X382311D01*
G01X17844Y-69775D02*
X17494Y-69525D01*
X17086Y-69358D01*
X16619D01*
X16094Y-69608D01*
X15686Y-70025D01*
X15394Y-70525D01*
X15161Y-71358D01*
X15103Y-72108D01*
X15219Y-72858D01*
X15394Y-73358D01*
X15744Y-73858D01*
X16153Y-74192D01*
X16561Y-74358D01*
X16969D01*
X17378Y-74192D01*
X17728Y-73942D01*
X18019Y-73609D01*
G01X19778Y-69358D02*
Y-72942D01*
X20011Y-73692D01*
X20478Y-74192D01*
X21061Y-74358D01*
X21644Y-74192D01*
X22111Y-73692D01*
X22344Y-72942D01*
Y-69358D01*
G01X24336Y-73692D02*
X24803Y-74108D01*
X25328Y-74358D01*
X25794D01*
X26261Y-74108D01*
X26611Y-73692D01*
X26786Y-73108D01*
X26669Y-72525D01*
X26378Y-72025D01*
X25853Y-71692D01*
X25153Y-71525D01*
X24744Y-71192D01*
X24569Y-70608D01*
X24686Y-70025D01*
X24978Y-69608D01*
X25386Y-69358D01*
X25794D01*
X26203Y-69525D01*
X26553Y-69942D01*
G01X30061Y-69358D02*
Y-74358D01*
G01X28719Y-69358D02*
X31403D01*
G01X34561Y-74358D02*
X34094Y-74275D01*
X33686Y-73942D01*
X33336Y-73442D01*
X33103Y-72858D01*
X32986Y-72192D01*
Y-71525D01*
X33103Y-70858D01*
X33336Y-70275D01*
X33686Y-69775D01*
X34094Y-69442D01*
X34561Y-69358D01*
X35028Y-69442D01*
X35436Y-69775D01*
X35786Y-70275D01*
X36019Y-70858D01*
X36136Y-71525D01*
Y-72192D01*
X36019Y-72858D01*
X35786Y-73442D01*
X35436Y-73942D01*
X35028Y-74275D01*
X34561Y-74358D01*
G01X37544D02*
Y-69358D01*
X39061Y-73525D01*
X40578Y-69358D01*
Y-74358D01*
G01X44728D02*
X42394D01*
Y-69358D01*
X44728D01*
G01X43794Y-71775D02*
X42394D01*
G01X46894Y-74358D02*
Y-69358D01*
X48353D01*
X48819Y-69608D01*
X49111Y-69942D01*
X49228Y-70608D01*
X49111Y-71275D01*
X48761Y-71692D01*
X48353Y-71942D01*
X46894D01*
G01X48353D02*
X49228Y-74358D01*
G01X75711Y-88292D02*
X76511Y-88958D01*
X77411Y-89358D01*
X78211D01*
X79011Y-88958D01*
X79611Y-88292D01*
X79911Y-87358D01*
X79711Y-86425D01*
X79211Y-85625D01*
X78311Y-85092D01*
X77111Y-84825D01*
X76411Y-84292D01*
X76111Y-83358D01*
X76311Y-82425D01*
X76811Y-81758D01*
X77511Y-81358D01*
X78211D01*
X78911Y-81625D01*
X79511Y-82292D01*
G01X87811Y-89358D02*
X83811D01*
Y-81358D01*
X87811D01*
G01X86211Y-85225D02*
X83811D01*
G01X91211Y-89358D02*
Y-81358D01*
X93811Y-88025D01*
X96411Y-81358D01*
Y-89358D01*
G01X101811Y-81358D02*
Y-89358D01*
G01X99511Y-81358D02*
X104111D01*
G01X111811Y-89358D02*
X107811D01*
Y-81358D01*
X111811D01*
G01X110211Y-85225D02*
X107811D01*
G01X120011Y-82025D02*
X119411Y-81625D01*
X118711Y-81358D01*
X117911D01*
X117011Y-81758D01*
X116311Y-82425D01*
X115811Y-83225D01*
X115411Y-84558D01*
X115311Y-85758D01*
X115511Y-86958D01*
X115811Y-87758D01*
X116411Y-88558D01*
X117111Y-89092D01*
X117811Y-89358D01*
X118511D01*
X119211Y-89092D01*
X119811Y-88692D01*
X120311Y-88159D01*
G01X123711Y-89358D02*
Y-81358D01*
G01X127911D02*
Y-89358D01*
G01Y-85358D02*
X123711D01*
G01X220711Y-175792D02*
X221511Y-176458D01*
X222411Y-176858D01*
X223211D01*
X224011Y-176458D01*
X224611Y-175792D01*
X224911Y-174858D01*
X224711Y-173925D01*
X224211Y-173125D01*
X223311Y-172592D01*
X222111Y-172325D01*
X221411Y-171792D01*
X221111Y-170858D01*
X221311Y-169925D01*
X221811Y-169258D01*
X222511Y-168858D01*
X223211D01*
X223911Y-169125D01*
X224511Y-169792D01*
G01X230811Y-176858D02*
X230011Y-176725D01*
X229311Y-176192D01*
X228711Y-175392D01*
X228311Y-174458D01*
X228111Y-173392D01*
Y-172325D01*
X228311Y-171258D01*
X228711Y-170325D01*
X229311Y-169525D01*
X230011Y-168992D01*
X230811Y-168858D01*
X231611Y-168992D01*
X232311Y-169525D01*
X232911Y-170325D01*
X233311Y-171258D01*
X233511Y-172325D01*
Y-173392D01*
X233311Y-174458D01*
X232911Y-175392D01*
X232311Y-176192D01*
X231611Y-176725D01*
X230811Y-176858D01*
G01X236811Y-168858D02*
Y-176858D01*
X240811D01*
G01X244611D02*
Y-168858D01*
X246611D01*
X247411Y-169258D01*
X248011Y-169792D01*
X248511Y-170592D01*
X248911Y-171525D01*
X249011Y-172858D01*
X248911Y-174192D01*
X248511Y-175125D01*
X248011Y-175925D01*
X247411Y-176458D01*
X246611Y-176858D01*
X244611D01*
G01X256811D02*
X252811D01*
Y-168858D01*
X256811D01*
G01X255211Y-172725D02*
X252811D01*
G01X260811Y-176858D02*
Y-168858D01*
X263311D01*
X264111Y-169258D01*
X264611Y-169792D01*
X264811Y-170858D01*
X264611Y-171925D01*
X264011Y-172592D01*
X263311Y-172992D01*
X260811D01*
G01X263311D02*
X264811Y-176858D01*
G01X276211D02*
Y-168858D01*
X278811Y-175525D01*
X281411Y-168858D01*
Y-176858D01*
G01X284311D02*
X286811Y-168858D01*
X289311Y-176858D01*
G01X288411Y-174058D02*
X285211D01*
G01X292711Y-175792D02*
X293511Y-176458D01*
X294411Y-176858D01*
X295211D01*
X296011Y-176458D01*
X296611Y-175792D01*
X296911Y-174858D01*
X296711Y-173925D01*
X296211Y-173125D01*
X295311Y-172592D01*
X294111Y-172325D01*
X293411Y-171792D01*
X293111Y-170858D01*
X293311Y-169925D01*
X293811Y-169258D01*
X294511Y-168858D01*
X295211D01*
X295911Y-169125D01*
X296511Y-169792D01*
G01X300611Y-176858D02*
Y-168858D01*
G01X304411D02*
X300611Y-173792D01*
G01X305011Y-176858D02*
X302311Y-171525D01*
G01X318811Y-168858D02*
Y-176858D01*
G01X316511Y-168858D02*
X321111D01*
G01X326811Y-176858D02*
X326011Y-176725D01*
X325311Y-176192D01*
X324711Y-175392D01*
X324311Y-174458D01*
X324111Y-173392D01*
Y-172325D01*
X324311Y-171258D01*
X324711Y-170325D01*
X325311Y-169525D01*
X326011Y-168992D01*
X326811Y-168858D01*
X327611Y-168992D01*
X328311Y-169525D01*
X328911Y-170325D01*
X329311Y-171258D01*
X329511Y-172325D01*
Y-173392D01*
X329311Y-174458D01*
X328911Y-175392D01*
X328311Y-176192D01*
X327611Y-176725D01*
X326811Y-176858D01*
G01X332811D02*
Y-168858D01*
X335211D01*
X336011Y-169258D01*
X336611Y-170192D01*
X336811Y-171258D01*
X336611Y-172325D01*
X336111Y-173125D01*
X335211Y-173525D01*
X332811D01*
G01X212311Y-139358D02*
Y-186858D01*
G01Y-159358D02*
X382311D01*
G01X215103Y-151858D02*
X216561Y-146858D01*
X218019Y-151858D01*
G01X217494Y-150108D02*
X215628D01*
G01X219894Y-151858D02*
Y-146858D01*
X221353D01*
X221819Y-147108D01*
X222111Y-147442D01*
X222228Y-148108D01*
X222111Y-148775D01*
X221761Y-149192D01*
X221353Y-149442D01*
X219894D01*
G01X221353D02*
X222228Y-151858D01*
G01X225561Y-146858D02*
Y-151858D01*
G01X224219Y-146858D02*
X226903D01*
G01X228311D02*
X229128Y-151858D01*
X230061Y-146858D01*
X230994Y-151858D01*
X231811Y-146858D01*
G01X234561Y-151858D02*
X234094Y-151775D01*
X233686Y-151442D01*
X233336Y-150942D01*
X233103Y-150358D01*
X232986Y-149692D01*
Y-149025D01*
X233103Y-148358D01*
X233336Y-147775D01*
X233686Y-147275D01*
X234094Y-146942D01*
X234561Y-146858D01*
X235028Y-146942D01*
X235436Y-147275D01*
X235786Y-147775D01*
X236019Y-148358D01*
X236136Y-149025D01*
Y-149692D01*
X236019Y-150358D01*
X235786Y-150942D01*
X235436Y-151442D01*
X235028Y-151775D01*
X234561Y-151858D01*
G01X237894D02*
Y-146858D01*
X239353D01*
X239819Y-147108D01*
X240111Y-147442D01*
X240228Y-148108D01*
X240111Y-148775D01*
X239761Y-149192D01*
X239353Y-149442D01*
X237894D01*
G01X239353D02*
X240228Y-151858D01*
G01X242278D02*
Y-146858D01*
G01X244494D02*
X242278Y-149942D01*
G01X244844Y-151858D02*
X243269Y-148525D01*
G01X251278Y-151858D02*
Y-146858D01*
X252444D01*
X252911Y-147108D01*
X253261Y-147442D01*
X253553Y-147942D01*
X253786Y-148525D01*
X253844Y-149358D01*
X253786Y-150192D01*
X253553Y-150775D01*
X253261Y-151275D01*
X252911Y-151608D01*
X252444Y-151858D01*
X251278D01*
G01X255603D02*
X257061Y-146858D01*
X258519Y-151858D01*
G01X257994Y-150108D02*
X256128D01*
G01X261561Y-146858D02*
Y-151858D01*
G01X260219Y-146858D02*
X262903D01*
G01X267228Y-151858D02*
X264894D01*
Y-146858D01*
X267228D01*
G01X266294Y-149275D02*
X264894D01*
G01X212311Y-139358D02*
X382311D01*
G01X212311Y-66858D02*
Y-139358D01*
G01X215394Y-130858D02*
X215686Y-131358D01*
X216036Y-131692D01*
X216444Y-131858D01*
X216911Y-131692D01*
X217261Y-131358D01*
X217611Y-130858D01*
X217728Y-130192D01*
Y-126858D01*
G01X221061Y-131858D02*
X220594Y-131775D01*
X220186Y-131442D01*
X219836Y-130942D01*
X219603Y-130358D01*
X219486Y-129692D01*
Y-129025D01*
X219603Y-128358D01*
X219836Y-127775D01*
X220186Y-127275D01*
X220594Y-126942D01*
X221061Y-126858D01*
X221528Y-126942D01*
X221936Y-127275D01*
X222286Y-127775D01*
X222519Y-128358D01*
X222636Y-129025D01*
Y-129692D01*
X222519Y-130358D01*
X222286Y-130942D01*
X221936Y-131442D01*
X221528Y-131775D01*
X221061Y-131858D01*
G01X226028Y-129192D02*
X226261Y-128942D01*
X226436Y-128525D01*
X226553Y-127942D01*
X226436Y-127442D01*
X226203Y-127108D01*
X225794Y-126858D01*
X224219D01*
Y-131858D01*
X226144D01*
X226553Y-131525D01*
X226786Y-131025D01*
X226903Y-130442D01*
X226786Y-129858D01*
X226436Y-129358D01*
X226028Y-129192D01*
X224219D01*
G01X233394Y-133525D02*
X234561Y-126858D01*
G01X235728D02*
X234561Y-133525D01*
G01X232811Y-131025D02*
X236311D01*
G01Y-129358D02*
X232811D01*
G01X217028Y-101692D02*
X217261Y-101442D01*
X217436Y-101025D01*
X217553Y-100442D01*
X217436Y-99942D01*
X217203Y-99608D01*
X216794Y-99358D01*
X215219D01*
Y-104358D01*
X217144D01*
X217553Y-104025D01*
X217786Y-103525D01*
X217903Y-102942D01*
X217786Y-102358D01*
X217436Y-101858D01*
X217028Y-101692D01*
X215219D01*
G01X221061Y-104358D02*
X220594Y-104275D01*
X220186Y-103942D01*
X219836Y-103442D01*
X219603Y-102858D01*
X219486Y-102192D01*
Y-101525D01*
X219603Y-100858D01*
X219836Y-100275D01*
X220186Y-99775D01*
X220594Y-99442D01*
X221061Y-99358D01*
X221528Y-99442D01*
X221936Y-99775D01*
X222286Y-100275D01*
X222519Y-100858D01*
X222636Y-101525D01*
Y-102192D01*
X222519Y-102858D01*
X222286Y-103442D01*
X221936Y-103942D01*
X221528Y-104275D01*
X221061Y-104358D01*
G01X224103D02*
X225561Y-99358D01*
X227019Y-104358D01*
G01X226494Y-102608D02*
X224628D01*
G01X228894Y-104358D02*
Y-99358D01*
X230353D01*
X230819Y-99608D01*
X231111Y-99942D01*
X231228Y-100608D01*
X231111Y-101275D01*
X230761Y-101692D01*
X230353Y-101942D01*
X228894D01*
G01X230353D02*
X231228Y-104358D01*
G01X233278D02*
Y-99358D01*
X234444D01*
X234911Y-99608D01*
X235261Y-99942D01*
X235553Y-100442D01*
X235786Y-101025D01*
X235844Y-101858D01*
X235786Y-102692D01*
X235553Y-103275D01*
X235261Y-103775D01*
X234911Y-104108D01*
X234444Y-104358D01*
X233278D01*
G01X242219D02*
Y-99358D01*
X244903Y-104358D01*
Y-99358D01*
G01X246603Y-104358D02*
X248061Y-99358D01*
X249519Y-104358D01*
G01X248994Y-102608D02*
X247128D01*
G01X251044Y-104358D02*
Y-99358D01*
X252561Y-103525D01*
X254078Y-99358D01*
Y-104358D01*
G01X258228D02*
X255894D01*
Y-99358D01*
X258228D01*
G01X257294Y-101775D02*
X255894D01*
G01X212311Y-121858D02*
X382311D01*
G01X215394Y-74358D02*
Y-69358D01*
X216794D01*
X217261Y-69608D01*
X217611Y-70192D01*
X217728Y-70858D01*
X217611Y-71525D01*
X217319Y-72025D01*
X216794Y-72275D01*
X215394D01*
G01X219603Y-74358D02*
X221061Y-69358D01*
X222519Y-74358D01*
G01X221994Y-72608D02*
X220128D01*
G01X224394Y-74358D02*
Y-69358D01*
X225853D01*
X226319Y-69608D01*
X226611Y-69942D01*
X226728Y-70608D01*
X226611Y-71275D01*
X226261Y-71692D01*
X225853Y-71942D01*
X224394D01*
G01X225853D02*
X226728Y-74358D01*
G01X230061Y-69358D02*
Y-74358D01*
G01X228719Y-69358D02*
X231403D01*
G01X237719Y-74358D02*
Y-69358D01*
X240403Y-74358D01*
Y-69358D01*
G01X243561Y-74358D02*
X243094Y-74275D01*
X242686Y-73942D01*
X242336Y-73442D01*
X242103Y-72858D01*
X241986Y-72192D01*
Y-71525D01*
X242103Y-70858D01*
X242336Y-70275D01*
X242686Y-69775D01*
X243094Y-69442D01*
X243561Y-69358D01*
X244028Y-69442D01*
X244436Y-69775D01*
X244786Y-70275D01*
X245019Y-70858D01*
X245136Y-71525D01*
Y-72192D01*
X245019Y-72858D01*
X244786Y-73442D01*
X244436Y-73942D01*
X244028Y-74275D01*
X243561Y-74358D01*
G01X247011Y-74525D02*
X249111Y-69358D01*
G01X251394Y-74358D02*
Y-69358D01*
X252853D01*
X253319Y-69608D01*
X253611Y-69942D01*
X253728Y-70608D01*
X253611Y-71275D01*
X253261Y-71692D01*
X252853Y-71942D01*
X251394D01*
G01X252853D02*
X253728Y-74358D01*
G01X258228D02*
X255894D01*
Y-69358D01*
X258228D01*
G01X257294Y-71775D02*
X255894D01*
G01X260103Y-69358D02*
X261561Y-74358D01*
X263019Y-69358D01*
G01X236200Y-108667D02*
X235600Y-108267D01*
X234900Y-108000D01*
X234100D01*
X233200Y-108400D01*
X232500Y-109067D01*
X232000Y-109867D01*
X231600Y-111200D01*
X231500Y-112400D01*
X231700Y-113600D01*
X232000Y-114400D01*
X232600Y-115200D01*
X233300Y-115733D01*
X234000Y-116000D01*
X234700D01*
X235400Y-115733D01*
X236000Y-115334D01*
X236500Y-114800D01*
G01X239400Y-116000D02*
Y-108000D01*
X242000Y-114667D01*
X244600Y-108000D01*
Y-116000D01*
G01X247000Y-118667D02*
X253000D01*
G01X256000Y-116000D02*
Y-108000D01*
X258400D01*
X259200Y-108400D01*
X259800Y-109333D01*
X260000Y-110400D01*
X259800Y-111467D01*
X259300Y-112267D01*
X258400Y-112667D01*
X256000D01*
G01X268200Y-108667D02*
X267600Y-108267D01*
X266900Y-108000D01*
X266100D01*
X265200Y-108400D01*
X264500Y-109067D01*
X264000Y-109867D01*
X263600Y-111200D01*
X263500Y-112400D01*
X263700Y-113600D01*
X264000Y-114400D01*
X264600Y-115200D01*
X265300Y-115733D01*
X266000Y-116000D01*
X266700D01*
X267400Y-115733D01*
X268000Y-115334D01*
X268500Y-114800D01*
G01X274800Y-111733D02*
X275200Y-111333D01*
X275500Y-110667D01*
X275700Y-109733D01*
X275500Y-108933D01*
X275100Y-108400D01*
X274400Y-108000D01*
X271700D01*
Y-116000D01*
X275000D01*
X275700Y-115467D01*
X276100Y-114667D01*
X276300Y-113733D01*
X276100Y-112800D01*
X275500Y-112000D01*
X274800Y-111733D01*
X271700D01*
G01X279000Y-118667D02*
X285000D01*
G01X287500Y-108000D02*
X290000Y-116000D01*
X292500Y-108000D01*
G01X296100Y-109333D02*
X296700Y-108534D01*
X297400Y-108133D01*
X298200Y-108000D01*
X299200Y-108267D01*
X299900Y-108933D01*
X300100Y-109733D01*
X300000Y-110534D01*
X299600Y-111200D01*
X297600Y-112533D01*
X296700Y-113467D01*
X296100Y-114800D01*
X295900Y-116000D01*
X300100D01*
G01X271000Y-88500D02*
Y-80500D01*
X273400D01*
X274200Y-80900D01*
X274800Y-81833D01*
X275000Y-82900D01*
X274800Y-83967D01*
X274300Y-84767D01*
X273400Y-85167D01*
X271000D01*
G01X278500Y-88500D02*
X281000Y-80500D01*
X283500Y-88500D01*
G01X282600Y-85700D02*
X279400D01*
G01X287000Y-88500D02*
Y-80500D01*
X289500D01*
X290300Y-80900D01*
X290800Y-81433D01*
X291000Y-82500D01*
X290800Y-83567D01*
X290200Y-84233D01*
X289500Y-84633D01*
X287000D01*
G01X289500D02*
X291000Y-88500D01*
G01X297000Y-80500D02*
Y-88500D01*
G01X294700Y-80500D02*
X299300D01*
G01X310700Y-88500D02*
Y-80500D01*
X315300Y-88500D01*
Y-80500D01*
G01X318800D02*
Y-86233D01*
X319200Y-87434D01*
X320000Y-88233D01*
X321000Y-88500D01*
X322000Y-88233D01*
X322800Y-87434D01*
X323200Y-86233D01*
Y-80500D01*
G01X326400Y-88500D02*
Y-80500D01*
X329000Y-87167D01*
X331600Y-80500D01*
Y-88500D01*
G01X337800Y-84233D02*
X338200Y-83833D01*
X338500Y-83167D01*
X338700Y-82233D01*
X338500Y-81433D01*
X338100Y-80900D01*
X337400Y-80500D01*
X334700D01*
Y-88500D01*
X338000D01*
X338700Y-87967D01*
X339100Y-87167D01*
X339300Y-86233D01*
X339100Y-85300D01*
X338500Y-84500D01*
X337800Y-84233D01*
X334700D01*
G01X347000Y-88500D02*
X343000D01*
Y-80500D01*
X347000D01*
G01X345400Y-84367D02*
X343000D01*
G01X351000Y-88500D02*
Y-80500D01*
X353500D01*
X354300Y-80900D01*
X354800Y-81433D01*
X355000Y-82500D01*
X354800Y-83567D01*
X354200Y-84233D01*
X353500Y-84633D01*
X351000D01*
G01X353500D02*
X355000Y-88500D01*
G01X297811Y-146358D02*
X297011Y-146625D01*
X296411Y-147292D01*
X296011Y-148092D01*
X295711Y-149158D01*
X295611Y-150358D01*
X295711Y-151558D01*
X296011Y-152625D01*
X296411Y-153425D01*
X297011Y-154092D01*
X297811Y-154358D01*
X298611Y-154092D01*
X299211Y-153425D01*
X299611Y-152625D01*
X299911Y-151558D01*
X300011Y-150358D01*
X299911Y-149158D01*
X299611Y-148092D01*
X299211Y-147292D01*
X298611Y-146625D01*
X297811Y-146358D01*
G01X303611Y-152758D02*
X304211Y-153692D01*
X305011Y-154225D01*
X305911Y-154358D01*
X306711Y-154225D01*
X307511Y-153558D01*
X308011Y-152758D01*
X308111Y-151958D01*
X307911Y-151025D01*
X307211Y-150358D01*
X306511Y-150092D01*
X305611D01*
G01X306511D02*
X307111Y-149692D01*
X307611Y-149025D01*
X307811Y-148225D01*
X307611Y-147425D01*
X307111Y-146758D01*
X306211Y-146358D01*
X305311Y-146492D01*
X304411Y-147025D01*
G01X311311Y-154358D02*
X313811Y-146358D01*
X316311Y-154358D01*
G01X315411Y-151558D02*
X312211D01*
G01X319811Y-154358D02*
Y-146358D01*
X322211D01*
X323011Y-146758D01*
X323611Y-147692D01*
X323811Y-148758D01*
X323611Y-149825D01*
X323111Y-150625D01*
X322211Y-151025D01*
X319811D01*
G01X327811Y-154358D02*
Y-146358D01*
X330311D01*
X331111Y-146758D01*
X331611Y-147292D01*
X331811Y-148358D01*
X331611Y-149425D01*
X331011Y-150092D01*
X330311Y-150492D01*
X327811D01*
G01X330311D02*
X331811Y-154358D01*
G01X335911Y-147692D02*
X336511Y-146892D01*
X337211Y-146492D01*
X338011Y-146358D01*
X339011Y-146625D01*
X339711Y-147292D01*
X339911Y-148092D01*
X339811Y-148892D01*
X339411Y-149558D01*
X337411Y-150892D01*
X336511Y-151825D01*
X335911Y-153159D01*
X335711Y-154358D01*
X339911D01*
G01X345811Y-146358D02*
X345011Y-146625D01*
X344411Y-147292D01*
X344011Y-148092D01*
X343711Y-149158D01*
X343611Y-150358D01*
X343711Y-151558D01*
X344011Y-152625D01*
X344411Y-153425D01*
X345011Y-154092D01*
X345811Y-154358D01*
X346611Y-154092D01*
X347211Y-153425D01*
X347611Y-152625D01*
X347911Y-151558D01*
X348011Y-150358D01*
X347911Y-149158D01*
X347611Y-148092D01*
X347211Y-147292D01*
X346611Y-146625D01*
X345811Y-146358D01*
G01X353811Y-154358D02*
Y-146358D01*
X352611Y-147958D01*
G01Y-154358D02*
X355011D01*
G01X360111Y-153425D02*
X360811Y-154092D01*
X361611Y-154358D01*
X362411Y-154092D01*
X363111Y-153292D01*
X363611Y-152092D01*
X363811Y-150892D01*
Y-149425D01*
X363611Y-148225D01*
X363111Y-147158D01*
X362511Y-146625D01*
X361811Y-146358D01*
X361011Y-146625D01*
X360411Y-147158D01*
X360011Y-147958D01*
X359811Y-149025D01*
X360011Y-149958D01*
X360511Y-150892D01*
X361111Y-151425D01*
X361811Y-151558D01*
X362611Y-151292D01*
X363211Y-150625D01*
X363811Y-149425D01*
G01X318011Y-131692D02*
X320611D01*
G01X0Y7874D02*
Y150000D01*
Y200000D01*
Y200787D01*
Y208661D01*
G02X7874Y216535I7874J0D01*
G01X291339D01*
G02X299213Y208661I0J-7874D01*
G01Y7874D01*
G02X291339Y0I-7874J0D01*
G01X7874D01*
G02X0Y7874I0J7874D01*
G54D19*
X70898Y98260D03*
Y102000D03*
Y105740D03*
X83102D03*
Y102000D03*
Y98260D03*
M02*
