G04 ================== begin FILE IDENTIFICATION RECORD ==================*
G04 Layout Name:  CM_PCB_V2_03APR2019.brd*
G04 Film Name:    SILK_TOP*
G04 File Format:  Gerber RS274X*
G04 File Origin:  Cadence Allegro 17.2-S036*
G04 Origin Date:  Wed Apr 03 12:04:17 2019*
G04 *
G04 Layer:  REF DES/SILKSCREEN_TOP*
G04 Layer:  PACKAGE GEOMETRY/SILKSCREEN_TOP*
G04 Layer:  DRAWING FORMAT/TITLE_BLOCK*
G04 Layer:  BOARD GEOMETRY/OUTLINE*
G04 Layer:  BOARD GEOMETRY/TOP_SILK*
G04 *
G04 Offset:    (0.000 0.000)*
G04 Mirror:    No*
G04 Mode:      Positive*
G04 Rotation:  0*
G04 FullContactRelief:  No*
G04 UndefLineWidth:     5.000*
G04 ================== end FILE IDENTIFICATION RECORD ====================*
%FSLAX25Y25*MOIN*%
%IR0*IPPOS*OFA0.00000B0.00000*MIA0B0*SFA1.00000B1.00000*%
%ADD10C,.005*%
%ADD11C,.006*%
%ADD12C,.008*%
%ADD13C,.005118*%
%ADD14C,.005906*%
%ADD15C,.003937*%
%ADD16C,.005909*%
%ADD17C,.009843*%
G75*
%LPD*%
G75*
G36*
G01X55122Y75795D02*
X57484D01*
Y70284D01*
X55122D01*
Y75795D01*
G37*
G36*
G01X44886D02*
X47248D01*
Y70284D01*
X44886D01*
Y75795D01*
G37*
G36*
G01X130063Y53331D02*
X127701D01*
Y58842D01*
X130063D01*
Y53331D01*
G37*
G36*
G01X140299D02*
X137937D01*
Y58842D01*
X140299D01*
Y53331D01*
G37*
G36*
G01X134972Y154996D02*
X132216D01*
Y156177D01*
X134972D01*
Y154996D01*
G37*
G36*
G01X166201Y113858D02*
Y123307D01*
X163839D01*
Y113858D01*
X166201D01*
G37*
G36*
G01X188701D02*
Y123307D01*
X186339D01*
Y113858D01*
X188701D01*
G37*
G36*
G01X211701D02*
Y123307D01*
X209339D01*
Y113858D01*
X211701D01*
G37*
G54D10*
G01X3000Y178317D02*
X8000Y179900D01*
X3000Y181483D01*
G01X3417Y186393D02*
X3167Y186013D01*
X3000Y185570D01*
Y185063D01*
X3250Y184493D01*
X3667Y184050D01*
X4167Y183733D01*
X5000Y183480D01*
X5750Y183417D01*
X6500Y183543D01*
X7000Y183733D01*
X7500Y184113D01*
X7833Y184557D01*
X8000Y185000D01*
Y185443D01*
X7833Y185887D01*
X7583Y186267D01*
X7250Y186583D01*
G01X3417Y191493D02*
X3167Y191113D01*
X3000Y190670D01*
Y190163D01*
X3250Y189593D01*
X3667Y189150D01*
X4167Y188833D01*
X5000Y188580D01*
X5750Y188517D01*
X6500Y188643D01*
X7000Y188833D01*
X7500Y189213D01*
X7833Y189657D01*
X8000Y190100D01*
Y190543D01*
X7833Y190987D01*
X7583Y191367D01*
X7250Y191683D01*
G01X382311Y-186858D02*
Y-66858D01*
X12311D01*
Y-186858D01*
X382311D01*
G01X15278Y-104358D02*
Y-99358D01*
X16444D01*
X16911Y-99608D01*
X17261Y-99942D01*
X17553Y-100442D01*
X17786Y-101025D01*
X17844Y-101858D01*
X17786Y-102692D01*
X17553Y-103275D01*
X17261Y-103775D01*
X16911Y-104108D01*
X16444Y-104358D01*
X15278D01*
G01X22228D02*
X19894D01*
Y-99358D01*
X22228D01*
G01X21294Y-101775D02*
X19894D01*
G01X24336Y-103692D02*
X24803Y-104108D01*
X25328Y-104358D01*
X25794D01*
X26261Y-104108D01*
X26611Y-103692D01*
X26786Y-103108D01*
X26669Y-102525D01*
X26378Y-102025D01*
X25853Y-101692D01*
X25153Y-101525D01*
X24744Y-101192D01*
X24569Y-100608D01*
X24686Y-100025D01*
X24978Y-99608D01*
X25386Y-99358D01*
X25794D01*
X26203Y-99525D01*
X26553Y-99942D01*
G01X29361Y-99358D02*
X30761D01*
G01X30061D02*
Y-104358D01*
G01X29361D02*
X30761D01*
G01X34911Y-101858D02*
X36078D01*
Y-103358D01*
X35728Y-103858D01*
X35319Y-104192D01*
X34736Y-104358D01*
X34153Y-104192D01*
X33744Y-103858D01*
X33394Y-103358D01*
X33161Y-102775D01*
X33044Y-102108D01*
Y-101525D01*
X33161Y-101025D01*
X33394Y-100442D01*
X33744Y-99942D01*
X34094Y-99608D01*
X34561Y-99358D01*
X34969D01*
X35436Y-99525D01*
X35786Y-99858D01*
G01X37719Y-104358D02*
Y-99358D01*
X40403Y-104358D01*
Y-99358D01*
G01X44728Y-104358D02*
X42394D01*
Y-99358D01*
X44728D01*
G01X43794Y-101775D02*
X42394D01*
G01X46778Y-104358D02*
Y-99358D01*
X47944D01*
X48411Y-99608D01*
X48761Y-99942D01*
X49053Y-100442D01*
X49286Y-101025D01*
X49344Y-101858D01*
X49286Y-102692D01*
X49053Y-103275D01*
X48761Y-103775D01*
X48411Y-104108D01*
X47944Y-104358D01*
X46778D01*
G01X57528Y-101692D02*
X57761Y-101442D01*
X57936Y-101025D01*
X58053Y-100442D01*
X57936Y-99942D01*
X57703Y-99608D01*
X57294Y-99358D01*
X55719D01*
Y-104358D01*
X57644D01*
X58053Y-104025D01*
X58286Y-103525D01*
X58403Y-102942D01*
X58286Y-102358D01*
X57936Y-101858D01*
X57528Y-101692D01*
X55719D01*
G01X61561Y-104358D02*
Y-102108D01*
X60394Y-99358D01*
G01X62728D02*
X61561Y-102108D01*
G01X12311Y-96858D02*
X382311D01*
G01X17844Y-69775D02*
X17494Y-69525D01*
X17086Y-69358D01*
X16619D01*
X16094Y-69608D01*
X15686Y-70025D01*
X15394Y-70525D01*
X15161Y-71358D01*
X15103Y-72108D01*
X15219Y-72858D01*
X15394Y-73358D01*
X15744Y-73858D01*
X16153Y-74192D01*
X16561Y-74358D01*
X16969D01*
X17378Y-74192D01*
X17728Y-73942D01*
X18019Y-73609D01*
G01X19778Y-69358D02*
Y-72942D01*
X20011Y-73692D01*
X20478Y-74192D01*
X21061Y-74358D01*
X21644Y-74192D01*
X22111Y-73692D01*
X22344Y-72942D01*
Y-69358D01*
G01X24336Y-73692D02*
X24803Y-74108D01*
X25328Y-74358D01*
X25794D01*
X26261Y-74108D01*
X26611Y-73692D01*
X26786Y-73108D01*
X26669Y-72525D01*
X26378Y-72025D01*
X25853Y-71692D01*
X25153Y-71525D01*
X24744Y-71192D01*
X24569Y-70608D01*
X24686Y-70025D01*
X24978Y-69608D01*
X25386Y-69358D01*
X25794D01*
X26203Y-69525D01*
X26553Y-69942D01*
G01X30061Y-69358D02*
Y-74358D01*
G01X28719Y-69358D02*
X31403D01*
G01X34561Y-74358D02*
X34094Y-74275D01*
X33686Y-73942D01*
X33336Y-73442D01*
X33103Y-72858D01*
X32986Y-72192D01*
Y-71525D01*
X33103Y-70858D01*
X33336Y-70275D01*
X33686Y-69775D01*
X34094Y-69442D01*
X34561Y-69358D01*
X35028Y-69442D01*
X35436Y-69775D01*
X35786Y-70275D01*
X36019Y-70858D01*
X36136Y-71525D01*
Y-72192D01*
X36019Y-72858D01*
X35786Y-73442D01*
X35436Y-73942D01*
X35028Y-74275D01*
X34561Y-74358D01*
G01X37544D02*
Y-69358D01*
X39061Y-73525D01*
X40578Y-69358D01*
Y-74358D01*
G01X44728D02*
X42394D01*
Y-69358D01*
X44728D01*
G01X43794Y-71775D02*
X42394D01*
G01X46894Y-74358D02*
Y-69358D01*
X48353D01*
X48819Y-69608D01*
X49111Y-69942D01*
X49228Y-70608D01*
X49111Y-71275D01*
X48761Y-71692D01*
X48353Y-71942D01*
X46894D01*
G01X48353D02*
X49228Y-74358D01*
G01X18280Y59500D02*
X19547D01*
Y58000D01*
X19167Y57500D01*
X18723Y57167D01*
X18090Y57000D01*
X17457Y57167D01*
X17013Y57500D01*
X16633Y58000D01*
X16380Y58583D01*
X16253Y59250D01*
Y59833D01*
X16380Y60333D01*
X16633Y60917D01*
X17013Y61417D01*
X17393Y61750D01*
X17900Y62000D01*
X18343D01*
X18850Y61833D01*
X19230Y61500D01*
G01X21543Y57000D02*
Y62000D01*
X24457Y57000D01*
Y62000D01*
G01X26707Y57000D02*
Y62000D01*
X27973D01*
X28480Y61750D01*
X28860Y61417D01*
X29177Y60917D01*
X29430Y60333D01*
X29493Y59500D01*
X29430Y58667D01*
X29177Y58083D01*
X28860Y57583D01*
X28480Y57250D01*
X27973Y57000D01*
X26707D01*
G01X16317Y76000D02*
X17900Y71000D01*
X19483Y76000D01*
G01X24393Y75583D02*
X24013Y75833D01*
X23570Y76000D01*
X23063D01*
X22493Y75750D01*
X22050Y75333D01*
X21733Y74833D01*
X21480Y74000D01*
X21417Y73250D01*
X21543Y72500D01*
X21733Y72000D01*
X22113Y71500D01*
X22557Y71167D01*
X23000Y71000D01*
X23443D01*
X23887Y71167D01*
X24267Y71417D01*
X24583Y71750D01*
G01X29493Y75583D02*
X29113Y75833D01*
X28670Y76000D01*
X28163D01*
X27593Y75750D01*
X27150Y75333D01*
X26833Y74833D01*
X26580Y74000D01*
X26517Y73250D01*
X26643Y72500D01*
X26833Y72000D01*
X27213Y71500D01*
X27657Y71167D01*
X28100Y71000D01*
X28543D01*
X28987Y71167D01*
X29367Y71417D01*
X29683Y71750D01*
G01X14500Y180280D02*
Y181547D01*
X16000D01*
X16500Y181167D01*
X16833Y180723D01*
X17000Y180090D01*
X16833Y179457D01*
X16500Y179013D01*
X16000Y178633D01*
X15417Y178380D01*
X14750Y178253D01*
X14167D01*
X13667Y178380D01*
X13083Y178633D01*
X12583Y179013D01*
X12250Y179393D01*
X12000Y179900D01*
Y180343D01*
X12167Y180850D01*
X12500Y181230D01*
G01X17000Y183543D02*
X12000D01*
X17000Y186457D01*
X12000D01*
G01X17000Y188707D02*
X12000D01*
Y189973D01*
X12250Y190480D01*
X12583Y190860D01*
X13083Y191177D01*
X13667Y191430D01*
X14500Y191493D01*
X15333Y191430D01*
X15917Y191177D01*
X16417Y190860D01*
X16750Y190480D01*
X17000Y189973D01*
Y188707D01*
G01X30493Y14083D02*
X30113Y14333D01*
X29670Y14500D01*
X29163D01*
X28593Y14250D01*
X28150Y13833D01*
X27833Y13333D01*
X27580Y12500D01*
X27517Y11750D01*
X27643Y11000D01*
X27833Y10500D01*
X28213Y10000D01*
X28657Y9667D01*
X29100Y9500D01*
X29543D01*
X29987Y9667D01*
X30367Y9917D01*
X30683Y10250D01*
G01X32807Y14500D02*
Y10917D01*
X33060Y10166D01*
X33567Y9667D01*
X34200Y9500D01*
X34833Y9667D01*
X35340Y10166D01*
X35593Y10917D01*
Y14500D01*
G01X38033Y9500D02*
Y14500D01*
X39617D01*
X40123Y14250D01*
X40440Y13917D01*
X40567Y13250D01*
X40440Y12583D01*
X40060Y12167D01*
X39617Y11917D01*
X38033D01*
G01X39617D02*
X40567Y9500D01*
G01X43133D02*
Y14500D01*
X44717D01*
X45223Y14250D01*
X45540Y13917D01*
X45667Y13250D01*
X45540Y12583D01*
X45160Y12167D01*
X44717Y11917D01*
X43133D01*
G01X44717D02*
X45667Y9500D01*
G01X50767D02*
X48233D01*
Y14500D01*
X50767D01*
G01X49753Y12083D02*
X48233D01*
G01X53143Y9500D02*
Y14500D01*
X56057Y9500D01*
Y14500D01*
G01X59700D02*
Y9500D01*
G01X58243Y14500D02*
X61157D01*
G01X62900Y7833D02*
X66700D01*
G01X68253Y9500D02*
Y14500D01*
X69900Y10333D01*
X71547Y14500D01*
Y9500D01*
G01X76267D02*
X73733D01*
Y14500D01*
X76267D01*
G01X75253Y12083D02*
X73733D01*
G01X78517Y9500D02*
X80100Y14500D01*
X81683Y9500D01*
G01X81113Y11250D02*
X79087D01*
G01X83870Y10166D02*
X84377Y9750D01*
X84947Y9500D01*
X85453D01*
X85960Y9750D01*
X86340Y10166D01*
X86530Y10750D01*
X86403Y11333D01*
X86087Y11833D01*
X85517Y12167D01*
X84757Y12333D01*
X84313Y12667D01*
X84123Y13250D01*
X84250Y13833D01*
X84567Y14250D01*
X85010Y14500D01*
X85453D01*
X85897Y14333D01*
X86277Y13917D01*
G01X88907Y14500D02*
Y10917D01*
X89160Y10166D01*
X89667Y9667D01*
X90300Y9500D01*
X90933Y9667D01*
X91440Y10166D01*
X91693Y10917D01*
Y14500D01*
G01X94133Y9500D02*
Y14500D01*
X95717D01*
X96223Y14250D01*
X96540Y13917D01*
X96667Y13250D01*
X96540Y12583D01*
X96160Y12167D01*
X95717Y11917D01*
X94133D01*
G01X95717D02*
X96667Y9500D01*
G01X101767D02*
X99233D01*
Y14500D01*
X101767D01*
G01X100753Y12083D02*
X99233D01*
G01X103953Y9500D02*
Y14500D01*
X105600Y10333D01*
X107247Y14500D01*
Y9500D01*
G01X111967D02*
X109433D01*
Y14500D01*
X111967D01*
G01X110953Y12083D02*
X109433D01*
G01X114343Y9500D02*
Y14500D01*
X117257Y9500D01*
Y14500D01*
G01X120900D02*
Y9500D01*
G01X119443Y14500D02*
X122357D01*
G01X124100Y7833D02*
X127900D01*
G01X129833Y9500D02*
Y14500D01*
X131353D01*
X131860Y14250D01*
X132240Y13667D01*
X132367Y13000D01*
X132240Y12333D01*
X131923Y11833D01*
X131353Y11583D01*
X129833D01*
G01X137593Y14083D02*
X137213Y14333D01*
X136770Y14500D01*
X136263D01*
X135693Y14250D01*
X135250Y13833D01*
X134933Y13333D01*
X134680Y12500D01*
X134617Y11750D01*
X134743Y11000D01*
X134933Y10500D01*
X135313Y10000D01*
X135757Y9667D01*
X136200Y9500D01*
X136643D01*
X137087Y9667D01*
X137467Y9917D01*
X137783Y10250D01*
G01X141807Y12167D02*
X142060Y12417D01*
X142250Y12833D01*
X142377Y13417D01*
X142250Y13917D01*
X141997Y14250D01*
X141553Y14500D01*
X139843D01*
Y9500D01*
X141933D01*
X142377Y9833D01*
X142630Y10333D01*
X142757Y10917D01*
X142630Y11500D01*
X142250Y12000D01*
X141807Y12167D01*
X139843D01*
G01X144500Y7833D02*
X148300D01*
G01X149917Y14500D02*
X151500Y9500D01*
X153083Y14500D01*
G01X155397Y13667D02*
X155777Y14167D01*
X156220Y14417D01*
X156727Y14500D01*
X157360Y14333D01*
X157803Y13917D01*
X157930Y13417D01*
X157867Y12916D01*
X157613Y12500D01*
X156347Y11667D01*
X155777Y11083D01*
X155397Y10250D01*
X155270Y9500D01*
X157930D01*
G01X34683Y53620D02*
X34875Y53310D01*
X35105Y53103D01*
X35373Y53000D01*
X35680Y53103D01*
X35910Y53310D01*
X36140Y53620D01*
X36217Y54033D01*
Y56100D01*
G01X37707Y53620D02*
X37937Y53258D01*
X38243Y53052D01*
X38588Y53000D01*
X38895Y53052D01*
X39202Y53310D01*
X39393Y53620D01*
X39432Y53930D01*
X39355Y54292D01*
X39087Y54550D01*
X38818Y54653D01*
X38473D01*
G01X38818D02*
X39048Y54808D01*
X39240Y55067D01*
X39317Y55377D01*
X39240Y55687D01*
X39048Y55945D01*
X38703Y56100D01*
X38358Y56048D01*
X38013Y55842D01*
G01X27993Y94842D02*
X27763Y94997D01*
X27495Y95100D01*
X27188D01*
X26843Y94945D01*
X26575Y94687D01*
X26383Y94377D01*
X26230Y93860D01*
X26192Y93395D01*
X26268Y92930D01*
X26383Y92620D01*
X26613Y92310D01*
X26882Y92103D01*
X27150Y92000D01*
X27418D01*
X27687Y92103D01*
X27917Y92258D01*
X28108Y92465D01*
G01X30250Y92000D02*
Y95100D01*
X29790Y94480D01*
G01Y92000D02*
X30710D01*
G01X33350D02*
Y95100D01*
X32890Y94480D01*
G01Y92000D02*
X33810D01*
G01X27993Y104842D02*
X27763Y104997D01*
X27495Y105100D01*
X27188D01*
X26843Y104945D01*
X26575Y104687D01*
X26383Y104377D01*
X26230Y103860D01*
X26192Y103395D01*
X26268Y102930D01*
X26383Y102620D01*
X26613Y102310D01*
X26882Y102103D01*
X27150Y102000D01*
X27418D01*
X27687Y102103D01*
X27917Y102258D01*
X28108Y102465D01*
G01X30250Y102000D02*
Y105100D01*
X29790Y104480D01*
G01Y102000D02*
X30710D01*
G01X33350Y105100D02*
X33043Y104997D01*
X32813Y104738D01*
X32660Y104428D01*
X32545Y104015D01*
X32507Y103550D01*
X32545Y103085D01*
X32660Y102672D01*
X32813Y102362D01*
X33043Y102103D01*
X33350Y102000D01*
X33657Y102103D01*
X33887Y102362D01*
X34040Y102672D01*
X34155Y103085D01*
X34193Y103550D01*
X34155Y104015D01*
X34040Y104428D01*
X33887Y104738D01*
X33657Y104997D01*
X33350Y105100D01*
G01X28993Y114842D02*
X28763Y114997D01*
X28495Y115100D01*
X28188D01*
X27843Y114945D01*
X27575Y114687D01*
X27383Y114377D01*
X27230Y113860D01*
X27192Y113395D01*
X27268Y112930D01*
X27383Y112620D01*
X27613Y112310D01*
X27882Y112103D01*
X28150Y112000D01*
X28418D01*
X28687Y112103D01*
X28917Y112258D01*
X29108Y112465D01*
G01X30598Y112362D02*
X30867Y112103D01*
X31173Y112000D01*
X31480Y112103D01*
X31748Y112413D01*
X31940Y112878D01*
X32017Y113343D01*
Y113912D01*
X31940Y114377D01*
X31748Y114790D01*
X31518Y114997D01*
X31250Y115100D01*
X30943Y114997D01*
X30713Y114790D01*
X30560Y114480D01*
X30483Y114067D01*
X30560Y113705D01*
X30752Y113343D01*
X30982Y113137D01*
X31250Y113085D01*
X31557Y113188D01*
X31787Y113447D01*
X32017Y113912D01*
G01X52484Y79835D02*
X49384D01*
Y80601D01*
X49539Y80908D01*
X49746Y81138D01*
X50056Y81330D01*
X50417Y81483D01*
X50934Y81521D01*
X51451Y81483D01*
X51812Y81330D01*
X52122Y81138D01*
X52329Y80908D01*
X52484Y80601D01*
Y79835D01*
G01Y83778D02*
X49384D01*
X50004Y83318D01*
G01X52484D02*
Y84238D01*
G01X52158Y100993D02*
X52003Y100763D01*
X51900Y100495D01*
Y100188D01*
X52055Y99843D01*
X52313Y99575D01*
X52623Y99383D01*
X53140Y99230D01*
X53605Y99192D01*
X54070Y99268D01*
X54380Y99383D01*
X54690Y99613D01*
X54897Y99882D01*
X55000Y100150D01*
Y100418D01*
X54897Y100687D01*
X54742Y100917D01*
X54535Y101108D01*
G01X53708Y102522D02*
X53347Y102790D01*
X53140Y103020D01*
X53037Y103327D01*
X53140Y103595D01*
X53347Y103787D01*
X53657Y103940D01*
X54018Y103978D01*
X54328Y103940D01*
X54638Y103787D01*
X54897Y103557D01*
X55000Y103288D01*
X54897Y102982D01*
X54587Y102713D01*
X54122Y102560D01*
X53605Y102522D01*
X52933Y102598D01*
X52572Y102713D01*
X52210Y102905D01*
X51952Y103173D01*
X51900Y103442D01*
X52003Y103710D01*
X52262Y103902D01*
G01X75711Y-88292D02*
X76511Y-88958D01*
X77411Y-89358D01*
X78211D01*
X79011Y-88958D01*
X79611Y-88292D01*
X79911Y-87358D01*
X79711Y-86425D01*
X79211Y-85625D01*
X78311Y-85092D01*
X77111Y-84825D01*
X76411Y-84292D01*
X76111Y-83358D01*
X76311Y-82425D01*
X76811Y-81758D01*
X77511Y-81358D01*
X78211D01*
X78911Y-81625D01*
X79511Y-82292D01*
G01X87811Y-89358D02*
X83811D01*
Y-81358D01*
X87811D01*
G01X86211Y-85225D02*
X83811D01*
G01X91211Y-89358D02*
Y-81358D01*
X93811Y-88025D01*
X96411Y-81358D01*
Y-89358D01*
G01X101811Y-81358D02*
Y-89358D01*
G01X99511Y-81358D02*
X104111D01*
G01X111811Y-89358D02*
X107811D01*
Y-81358D01*
X111811D01*
G01X110211Y-85225D02*
X107811D01*
G01X120011Y-82025D02*
X119411Y-81625D01*
X118711Y-81358D01*
X117911D01*
X117011Y-81758D01*
X116311Y-82425D01*
X115811Y-83225D01*
X115411Y-84558D01*
X115311Y-85758D01*
X115511Y-86958D01*
X115811Y-87758D01*
X116411Y-88558D01*
X117111Y-89092D01*
X117811Y-89358D01*
X118511D01*
X119211Y-89092D01*
X119811Y-88692D01*
X120311Y-88159D01*
G01X123711Y-89358D02*
Y-81358D01*
G01X127911D02*
Y-89358D01*
G01Y-85358D02*
X123711D01*
G01X65158Y68993D02*
X65003Y68763D01*
X64900Y68495D01*
Y68188D01*
X65055Y67843D01*
X65313Y67575D01*
X65623Y67383D01*
X66140Y67230D01*
X66605Y67192D01*
X67070Y67268D01*
X67380Y67383D01*
X67690Y67613D01*
X67897Y67882D01*
X68000Y68150D01*
Y68418D01*
X67897Y68687D01*
X67742Y68917D01*
X67535Y69108D01*
G01X68000Y71250D02*
X64900D01*
X65520Y70790D01*
G01X68000D02*
Y71710D01*
G01X65417Y73622D02*
X65107Y73852D01*
X64952Y74120D01*
X64900Y74427D01*
X65003Y74810D01*
X65262Y75078D01*
X65572Y75155D01*
X65882Y75117D01*
X66140Y74963D01*
X66657Y74197D01*
X67018Y73852D01*
X67535Y73622D01*
X68000Y73545D01*
Y75155D01*
G01X70493Y88842D02*
X70263Y88997D01*
X69995Y89100D01*
X69688D01*
X69343Y88945D01*
X69075Y88687D01*
X68883Y88377D01*
X68730Y87860D01*
X68692Y87395D01*
X68768Y86930D01*
X68883Y86620D01*
X69113Y86310D01*
X69382Y86103D01*
X69650Y86000D01*
X69918D01*
X70187Y86103D01*
X70417Y86258D01*
X70608Y86465D01*
G01X72673Y86000D02*
X72750Y86672D01*
X72865Y87240D01*
X73018Y87757D01*
X73210Y88325D01*
X73517Y89100D01*
X71983D01*
G01X66000Y86383D02*
X62900D01*
Y87342D01*
X63055Y87648D01*
X63262Y87840D01*
X63675Y87917D01*
X64088Y87840D01*
X64347Y87610D01*
X64502Y87342D01*
Y86383D01*
G01Y87342D02*
X66000Y87917D01*
G01Y90250D02*
X62900D01*
X63520Y89790D01*
G01X66000D02*
Y90710D01*
G01Y93810D02*
X62900D01*
X65122Y92392D01*
Y94308D01*
G01X66000Y111383D02*
X62900D01*
Y112342D01*
X63055Y112648D01*
X63262Y112840D01*
X63675Y112917D01*
X64088Y112840D01*
X64347Y112610D01*
X64502Y112342D01*
Y111383D01*
G01Y112342D02*
X66000Y112917D01*
G01Y115250D02*
X62900D01*
X63520Y114790D01*
G01X66000D02*
Y115710D01*
G01X65535Y117507D02*
X65793Y117737D01*
X65948Y118005D01*
X66000Y118350D01*
X65897Y118695D01*
X65690Y118963D01*
X65328Y119155D01*
X64915Y119193D01*
X64502Y119117D01*
X64243Y118925D01*
X64037Y118657D01*
X63985Y118388D01*
X64037Y118120D01*
X64243Y117775D01*
X62900Y117890D01*
Y118925D01*
G01X86158Y87993D02*
X86003Y87763D01*
X85900Y87495D01*
Y87188D01*
X86055Y86843D01*
X86313Y86575D01*
X86623Y86383D01*
X87140Y86230D01*
X87605Y86192D01*
X88070Y86268D01*
X88380Y86383D01*
X88690Y86613D01*
X88897Y86882D01*
X89000Y87150D01*
Y87418D01*
X88897Y87687D01*
X88742Y87917D01*
X88535Y88108D01*
G01X89000Y90250D02*
X88948Y90518D01*
X88793Y90825D01*
X88535Y91017D01*
X88173Y91093D01*
X87812Y91017D01*
X87502Y90787D01*
X87347Y90442D01*
Y90058D01*
X87243Y89828D01*
X86985Y89637D01*
X86623Y89560D01*
X86262Y89675D01*
X86003Y89943D01*
X85900Y90250D01*
X86003Y90557D01*
X86262Y90825D01*
X86623Y90940D01*
X86985Y90863D01*
X87243Y90672D01*
X87347Y90442D01*
Y90058D01*
X87502Y89713D01*
X87812Y89483D01*
X88173Y89407D01*
X88535Y89483D01*
X88793Y89675D01*
X88948Y89982D01*
X89000Y90250D01*
G01X80307Y93100D02*
Y90878D01*
X80460Y90413D01*
X80767Y90103D01*
X81150Y90000D01*
X81533Y90103D01*
X81840Y90413D01*
X81993Y90878D01*
Y93100D01*
G01X84173Y90000D02*
X84250Y90672D01*
X84365Y91240D01*
X84518Y91757D01*
X84710Y92325D01*
X85017Y93100D01*
X83483D01*
G01X90000Y100383D02*
X86900D01*
Y101342D01*
X87055Y101648D01*
X87262Y101840D01*
X87675Y101917D01*
X88088Y101840D01*
X88347Y101610D01*
X88502Y101342D01*
Y100383D01*
G01Y101342D02*
X90000Y101917D01*
G01X89535Y103407D02*
X89793Y103637D01*
X89948Y103905D01*
X90000Y104250D01*
X89897Y104595D01*
X89690Y104863D01*
X89328Y105055D01*
X88915Y105093D01*
X88502Y105017D01*
X88243Y104825D01*
X88037Y104557D01*
X87985Y104288D01*
X88037Y104020D01*
X88243Y103675D01*
X86900Y103790D01*
Y104825D01*
G01X90000Y106383D02*
X86900D01*
Y107342D01*
X87055Y107648D01*
X87262Y107840D01*
X87675Y107917D01*
X88088Y107840D01*
X88347Y107610D01*
X88502Y107342D01*
Y106383D01*
G01Y107342D02*
X90000Y107917D01*
G01Y110173D02*
X89328Y110250D01*
X88760Y110365D01*
X88243Y110518D01*
X87675Y110710D01*
X86900Y111017D01*
Y109483D01*
G01X90000Y112383D02*
X86900D01*
Y113342D01*
X87055Y113648D01*
X87262Y113840D01*
X87675Y113917D01*
X88088Y113840D01*
X88347Y113610D01*
X88502Y113342D01*
Y112383D01*
G01Y113342D02*
X90000Y113917D01*
G01X88708Y115522D02*
X88347Y115790D01*
X88140Y116020D01*
X88037Y116327D01*
X88140Y116595D01*
X88347Y116787D01*
X88657Y116940D01*
X89018Y116978D01*
X89328Y116940D01*
X89638Y116787D01*
X89897Y116557D01*
X90000Y116288D01*
X89897Y115982D01*
X89587Y115713D01*
X89122Y115560D01*
X88605Y115522D01*
X87933Y115598D01*
X87572Y115713D01*
X87210Y115905D01*
X86952Y116173D01*
X86900Y116442D01*
X87003Y116710D01*
X87262Y116902D01*
G01X101000Y89383D02*
X97900D01*
Y90342D01*
X98055Y90648D01*
X98262Y90840D01*
X98675Y90917D01*
X99088Y90840D01*
X99347Y90610D01*
X99502Y90342D01*
Y89383D01*
G01Y90342D02*
X101000Y90917D01*
G01X98417Y92522D02*
X98107Y92752D01*
X97952Y93020D01*
X97900Y93327D01*
X98003Y93710D01*
X98262Y93978D01*
X98572Y94055D01*
X98882Y94017D01*
X99140Y93863D01*
X99657Y93097D01*
X100018Y92752D01*
X100535Y92522D01*
X101000Y92445D01*
Y94055D01*
G01Y96273D02*
X100328Y96350D01*
X99760Y96465D01*
X99243Y96618D01*
X98675Y96810D01*
X97900Y97117D01*
Y95583D01*
G01X95841Y88921D02*
X97442D01*
G01X96575Y90221D02*
Y87621D01*
G01X101000Y78307D02*
X97900D01*
Y79073D01*
X98055Y79380D01*
X98262Y79610D01*
X98572Y79802D01*
X98933Y79955D01*
X99450Y79993D01*
X99967Y79955D01*
X100328Y79802D01*
X100638Y79610D01*
X100845Y79380D01*
X101000Y79073D01*
Y78307D01*
G01Y82250D02*
X97900D01*
X98520Y81790D01*
G01X101000D02*
Y82710D01*
G01Y85273D02*
X100328Y85350D01*
X99760Y85465D01*
X99243Y85618D01*
X98675Y85810D01*
X97900Y86117D01*
Y84583D01*
G01X98133Y135620D02*
X98325Y135310D01*
X98555Y135103D01*
X98823Y135000D01*
X99130Y135103D01*
X99360Y135310D01*
X99590Y135620D01*
X99667Y136033D01*
Y138100D01*
G01X102000Y135000D02*
Y138100D01*
X101540Y137480D01*
G01Y135000D02*
X102460D01*
G01X105100D02*
Y138100D01*
X104640Y137480D01*
G01Y135000D02*
X105560D01*
G01X122158Y36993D02*
X122003Y36763D01*
X121900Y36495D01*
Y36188D01*
X122055Y35843D01*
X122313Y35575D01*
X122623Y35383D01*
X123140Y35230D01*
X123605Y35192D01*
X124070Y35268D01*
X124380Y35383D01*
X124690Y35613D01*
X124897Y35882D01*
X125000Y36150D01*
Y36418D01*
X124897Y36687D01*
X124742Y36917D01*
X124535Y37108D01*
G01X125000Y39250D02*
X121900D01*
X122520Y38790D01*
G01X125000D02*
Y39710D01*
G01X124535Y41507D02*
X124793Y41737D01*
X124948Y42005D01*
X125000Y42350D01*
X124897Y42695D01*
X124690Y42963D01*
X124328Y43155D01*
X123915Y43193D01*
X123502Y43117D01*
X123243Y42925D01*
X123037Y42657D01*
X122985Y42388D01*
X123037Y42120D01*
X123243Y41775D01*
X121900Y41890D01*
Y42925D01*
G01X125000Y74167D02*
Y71633D01*
X120000D01*
Y74167D01*
G01X122417Y73153D02*
Y71633D01*
G01X125000Y76670D02*
X120000Y79330D01*
G01Y76670D02*
X125000Y79330D01*
G01X120000Y83100D02*
X125000D01*
G01X120000Y81643D02*
Y84557D01*
G01X116380Y89133D02*
X116690Y89325D01*
X116897Y89555D01*
X117000Y89823D01*
X116897Y90130D01*
X116690Y90360D01*
X116380Y90590D01*
X115967Y90667D01*
X113900D01*
G01X117000Y93000D02*
X113900D01*
X114520Y92540D01*
G01X117000D02*
Y93460D01*
G01X113900Y96100D02*
X114003Y95793D01*
X114262Y95563D01*
X114572Y95410D01*
X114985Y95295D01*
X115450Y95257D01*
X115915Y95295D01*
X116328Y95410D01*
X116638Y95563D01*
X116897Y95793D01*
X117000Y96100D01*
X116897Y96407D01*
X116638Y96637D01*
X116328Y96790D01*
X115915Y96905D01*
X115450Y96943D01*
X114985Y96905D01*
X114572Y96790D01*
X114262Y96637D01*
X114003Y96407D01*
X113900Y96100D01*
G01X111380Y98707D02*
X111742Y98937D01*
X111948Y99243D01*
X112000Y99588D01*
X111948Y99895D01*
X111690Y100202D01*
X111380Y100393D01*
X111070Y100432D01*
X110708Y100355D01*
X110450Y100087D01*
X110347Y99818D01*
Y99473D01*
G01Y99818D02*
X110192Y100048D01*
X109933Y100240D01*
X109623Y100317D01*
X109313Y100240D01*
X109055Y100048D01*
X108900Y99703D01*
X108952Y99358D01*
X109158Y99013D01*
G01X112103Y102650D02*
X112052Y102573D01*
X111948D01*
X111897Y102650D01*
X111948Y102727D01*
X112052D01*
X112103Y102650D01*
G01X110708Y105022D02*
X110347Y105290D01*
X110140Y105520D01*
X110037Y105827D01*
X110140Y106095D01*
X110347Y106287D01*
X110657Y106440D01*
X111018Y106478D01*
X111328Y106440D01*
X111638Y106287D01*
X111897Y106057D01*
X112000Y105788D01*
X111897Y105482D01*
X111587Y105213D01*
X111122Y105060D01*
X110605Y105022D01*
X109933Y105098D01*
X109572Y105213D01*
X109210Y105405D01*
X108952Y105673D01*
X108900Y105942D01*
X109003Y106210D01*
X109262Y106402D01*
G01X108900Y107892D02*
X112000Y108850D01*
X108900Y109808D01*
G01X120000Y123633D02*
X125000D01*
Y126167D01*
G01Y128607D02*
X120000D01*
Y129873D01*
X120250Y130380D01*
X120583Y130760D01*
X121083Y131077D01*
X121667Y131330D01*
X122500Y131393D01*
X123333Y131330D01*
X123917Y131077D01*
X124417Y130760D01*
X124750Y130380D01*
X125000Y129873D01*
Y128607D01*
G01Y135100D02*
X124917Y134593D01*
X124583Y134150D01*
X124083Y133770D01*
X123500Y133517D01*
X122833Y133390D01*
X122167D01*
X121500Y133517D01*
X120917Y133770D01*
X120417Y134150D01*
X120083Y134593D01*
X120000Y135100D01*
X120083Y135607D01*
X120417Y136050D01*
X120917Y136430D01*
X121500Y136683D01*
X122167Y136810D01*
X122833D01*
X123500Y136683D01*
X124083Y136430D01*
X124583Y136050D01*
X124917Y135607D01*
X125000Y135100D01*
G01X111380Y118907D02*
X111742Y119137D01*
X111948Y119443D01*
X112000Y119788D01*
X111948Y120095D01*
X111690Y120402D01*
X111380Y120593D01*
X111070Y120632D01*
X110708Y120555D01*
X110450Y120287D01*
X110347Y120018D01*
Y119673D01*
G01Y120018D02*
X110192Y120248D01*
X109933Y120440D01*
X109623Y120517D01*
X109313Y120440D01*
X109055Y120248D01*
X108900Y119903D01*
X108952Y119558D01*
X109158Y119213D01*
G01X108900Y121892D02*
X112000Y122850D01*
X108900Y123808D01*
G01X115000Y164383D02*
X111900D01*
Y165342D01*
X112055Y165648D01*
X112262Y165840D01*
X112675Y165917D01*
X113088Y165840D01*
X113347Y165610D01*
X113502Y165342D01*
Y164383D01*
G01Y165342D02*
X115000Y165917D01*
G01Y168250D02*
X111900D01*
X112520Y167790D01*
G01X115000D02*
Y168710D01*
G01X112417Y170622D02*
X112107Y170852D01*
X111952Y171120D01*
X111900Y171427D01*
X112003Y171810D01*
X112262Y172078D01*
X112572Y172155D01*
X112882Y172117D01*
X113140Y171963D01*
X113657Y171197D01*
X114018Y170852D01*
X114535Y170622D01*
X115000Y170545D01*
Y172155D01*
G01X120000Y164383D02*
X116900D01*
Y165342D01*
X117055Y165648D01*
X117262Y165840D01*
X117675Y165917D01*
X118088Y165840D01*
X118347Y165610D01*
X118502Y165342D01*
Y164383D01*
G01Y165342D02*
X120000Y165917D01*
G01X119638Y167598D02*
X119897Y167867D01*
X120000Y168173D01*
X119897Y168480D01*
X119587Y168748D01*
X119122Y168940D01*
X118657Y169017D01*
X118088D01*
X117623Y168940D01*
X117210Y168748D01*
X117003Y168518D01*
X116900Y168250D01*
X117003Y167943D01*
X117210Y167713D01*
X117520Y167560D01*
X117933Y167483D01*
X118295Y167560D01*
X118657Y167752D01*
X118863Y167982D01*
X118915Y168250D01*
X118812Y168557D01*
X118553Y168787D01*
X118088Y169017D01*
G01X143000Y64607D02*
X139900D01*
Y65373D01*
X140055Y65680D01*
X140262Y65910D01*
X140572Y66102D01*
X140933Y66255D01*
X141450Y66293D01*
X141967Y66255D01*
X142328Y66102D01*
X142638Y65910D01*
X142845Y65680D01*
X143000Y65373D01*
Y64607D01*
G01X140417Y67822D02*
X140107Y68052D01*
X139952Y68320D01*
X139900Y68627D01*
X140003Y69010D01*
X140262Y69278D01*
X140572Y69355D01*
X140882Y69317D01*
X141140Y69163D01*
X141657Y68397D01*
X142018Y68052D01*
X142535Y67822D01*
X143000Y67745D01*
Y69355D01*
G01X132383Y97000D02*
Y100100D01*
X133342D01*
X133648Y99945D01*
X133840Y99738D01*
X133917Y99325D01*
X133840Y98912D01*
X133610Y98653D01*
X133342Y98498D01*
X132383D01*
G01X133342D02*
X133917Y97000D01*
G01X136250D02*
Y100100D01*
X135790Y99480D01*
G01Y97000D02*
X136710D01*
G01X138622Y98292D02*
X138890Y98653D01*
X139120Y98860D01*
X139427Y98963D01*
X139695Y98860D01*
X139887Y98653D01*
X140040Y98343D01*
X140078Y97982D01*
X140040Y97672D01*
X139887Y97362D01*
X139657Y97103D01*
X139388Y97000D01*
X139082Y97103D01*
X138813Y97413D01*
X138660Y97878D01*
X138622Y98395D01*
X138698Y99067D01*
X138813Y99428D01*
X139005Y99790D01*
X139273Y100048D01*
X139542Y100100D01*
X139810Y99997D01*
X140002Y99738D01*
G01X128158Y111993D02*
X128003Y111763D01*
X127900Y111495D01*
Y111188D01*
X128055Y110843D01*
X128313Y110575D01*
X128623Y110383D01*
X129140Y110230D01*
X129605Y110192D01*
X130070Y110268D01*
X130380Y110383D01*
X130690Y110613D01*
X130897Y110882D01*
X131000Y111150D01*
Y111418D01*
X130897Y111687D01*
X130742Y111917D01*
X130535Y112108D01*
G01X131000Y114250D02*
X127900D01*
X128520Y113790D01*
G01X131000D02*
Y114710D01*
G01X129708Y116622D02*
X129347Y116890D01*
X129140Y117120D01*
X129037Y117427D01*
X129140Y117695D01*
X129347Y117887D01*
X129657Y118040D01*
X130018Y118078D01*
X130328Y118040D01*
X130638Y117887D01*
X130897Y117657D01*
X131000Y117388D01*
X130897Y117082D01*
X130587Y116813D01*
X130122Y116660D01*
X129605Y116622D01*
X128933Y116698D01*
X128572Y116813D01*
X128210Y117005D01*
X127952Y117273D01*
X127900Y117542D01*
X128003Y117810D01*
X128262Y118002D01*
G01X137000Y130383D02*
X133900D01*
Y131342D01*
X134055Y131648D01*
X134262Y131840D01*
X134675Y131917D01*
X135088Y131840D01*
X135347Y131610D01*
X135502Y131342D01*
Y130383D01*
G01Y131342D02*
X137000Y131917D01*
G01Y134250D02*
X133900D01*
X134520Y133790D01*
G01X137000D02*
Y134710D01*
G01Y137350D02*
X136948Y137618D01*
X136793Y137925D01*
X136535Y138117D01*
X136173Y138193D01*
X135812Y138117D01*
X135502Y137887D01*
X135347Y137542D01*
Y137158D01*
X135243Y136928D01*
X134985Y136737D01*
X134623Y136660D01*
X134262Y136775D01*
X134003Y137043D01*
X133900Y137350D01*
X134003Y137657D01*
X134262Y137925D01*
X134623Y138040D01*
X134985Y137963D01*
X135243Y137772D01*
X135347Y137542D01*
Y137158D01*
X135502Y136813D01*
X135812Y136583D01*
X136173Y136507D01*
X136535Y136583D01*
X136793Y136775D01*
X136948Y137082D01*
X137000Y137350D01*
G01X132000Y130383D02*
X128900D01*
Y131342D01*
X129055Y131648D01*
X129262Y131840D01*
X129675Y131917D01*
X130088Y131840D01*
X130347Y131610D01*
X130502Y131342D01*
Y130383D01*
G01Y131342D02*
X132000Y131917D01*
G01Y134250D02*
X128900D01*
X129520Y133790D01*
G01X132000D02*
Y134710D01*
G01Y137273D02*
X131328Y137350D01*
X130760Y137465D01*
X130243Y137618D01*
X129675Y137810D01*
X128900Y138117D01*
Y136583D01*
G01X142000Y130383D02*
X138900D01*
Y131342D01*
X139055Y131648D01*
X139262Y131840D01*
X139675Y131917D01*
X140088Y131840D01*
X140347Y131610D01*
X140502Y131342D01*
Y130383D01*
G01Y131342D02*
X142000Y131917D01*
G01Y134250D02*
X138900D01*
X139520Y133790D01*
G01X142000D02*
Y134710D01*
G01X141638Y136698D02*
X141897Y136967D01*
X142000Y137273D01*
X141897Y137580D01*
X141587Y137848D01*
X141122Y138040D01*
X140657Y138117D01*
X140088D01*
X139623Y138040D01*
X139210Y137848D01*
X139003Y137618D01*
X138900Y137350D01*
X139003Y137043D01*
X139210Y136813D01*
X139520Y136660D01*
X139933Y136583D01*
X140295Y136660D01*
X140657Y136852D01*
X140863Y137082D01*
X140915Y137350D01*
X140812Y137657D01*
X140553Y137887D01*
X140088Y138117D01*
G01X130307Y154100D02*
Y151878D01*
X130460Y151413D01*
X130767Y151103D01*
X131150Y151000D01*
X131533Y151103D01*
X131840Y151413D01*
X131993Y151878D01*
Y154100D01*
G01X134710Y151000D02*
Y154100D01*
X133292Y151878D01*
X135208D01*
G01X130993Y170842D02*
X130763Y170997D01*
X130495Y171100D01*
X130188D01*
X129843Y170945D01*
X129575Y170687D01*
X129383Y170377D01*
X129230Y169860D01*
X129192Y169395D01*
X129268Y168930D01*
X129383Y168620D01*
X129613Y168310D01*
X129882Y168103D01*
X130150Y168000D01*
X130418D01*
X130687Y168103D01*
X130917Y168258D01*
X131108Y168465D01*
G01X133710Y168000D02*
Y171100D01*
X132292Y168878D01*
X134208D01*
G01X139954Y168067D02*
Y171167D01*
X140913D01*
X141219Y171012D01*
X141411Y170805D01*
X141488Y170392D01*
X141411Y169978D01*
X141181Y169720D01*
X140913Y169565D01*
X139954D01*
G01X140913D02*
X141488Y168067D01*
G01X143092Y170650D02*
X143323Y170960D01*
X143591Y171115D01*
X143898Y171167D01*
X144281Y171064D01*
X144549Y170805D01*
X144626Y170495D01*
X144588Y170185D01*
X144434Y169927D01*
X143668Y169410D01*
X143323Y169048D01*
X143092Y168532D01*
X143016Y168067D01*
X144626D01*
G01X153567Y30000D02*
X151033D01*
Y35000D01*
X153567D01*
G01X152553Y32583D02*
X151033D01*
G01X156070Y30000D02*
X158730Y35000D01*
G01X156070D02*
X158730Y30000D01*
G01X162500Y35000D02*
Y30000D01*
G01X161043Y35000D02*
X163957D01*
G01X171307Y30000D02*
Y35000D01*
X172573D01*
X173080Y34750D01*
X173460Y34417D01*
X173777Y33917D01*
X174030Y33333D01*
X174093Y32500D01*
X174030Y31667D01*
X173777Y31083D01*
X173460Y30583D01*
X173080Y30250D01*
X172573Y30000D01*
X171307D01*
G01X179193Y34583D02*
X178813Y34833D01*
X178370Y35000D01*
X177863D01*
X177293Y34750D01*
X176850Y34333D01*
X176533Y33833D01*
X176280Y33000D01*
X176217Y32250D01*
X176343Y31500D01*
X176533Y31000D01*
X176913Y30500D01*
X177357Y30167D01*
X177800Y30000D01*
X178243D01*
X178687Y30167D01*
X179067Y30417D01*
X179383Y30750D01*
G01X187240Y35000D02*
X188760D01*
G01X188000D02*
Y30000D01*
G01X187240D02*
X188760D01*
G01X191643D02*
Y35000D01*
X194557Y30000D01*
Y35000D01*
G01X196933Y30000D02*
Y35000D01*
X198453D01*
X198960Y34750D01*
X199340Y34167D01*
X199467Y33500D01*
X199340Y32833D01*
X199023Y32333D01*
X198453Y32083D01*
X196933D01*
G01X201907Y35000D02*
Y31417D01*
X202160Y30667D01*
X202667Y30167D01*
X203300Y30000D01*
X203933Y30167D01*
X204440Y30667D01*
X204693Y31417D01*
Y35000D01*
G01X208400D02*
Y30000D01*
G01X206943Y35000D02*
X209857D01*
G01X148103Y44567D02*
X149623D01*
G01X148800Y45650D02*
Y43483D01*
G01X152317Y47900D02*
X153900Y42900D01*
X155483Y47900D01*
G01X147000Y90383D02*
X143900D01*
Y91342D01*
X144055Y91648D01*
X144262Y91840D01*
X144675Y91917D01*
X145088Y91840D01*
X145347Y91610D01*
X145502Y91342D01*
Y90383D01*
G01Y91342D02*
X147000Y91917D01*
G01Y94250D02*
X143900D01*
X144520Y93790D01*
G01X147000D02*
Y94710D01*
G01X146380Y96507D02*
X146742Y96737D01*
X146948Y97043D01*
X147000Y97388D01*
X146948Y97695D01*
X146690Y98002D01*
X146380Y98193D01*
X146070Y98232D01*
X145708Y98155D01*
X145450Y97887D01*
X145347Y97618D01*
Y97273D01*
G01Y97618D02*
X145192Y97848D01*
X144933Y98040D01*
X144623Y98117D01*
X144313Y98040D01*
X144055Y97848D01*
X143900Y97503D01*
X143952Y97158D01*
X144158Y96813D01*
G01X152841Y90921D02*
X154442D01*
G01X153575Y92221D02*
Y89621D01*
G01X146000Y79307D02*
X142900D01*
Y80073D01*
X143055Y80380D01*
X143262Y80610D01*
X143572Y80802D01*
X143933Y80955D01*
X144450Y80993D01*
X144967Y80955D01*
X145328Y80802D01*
X145638Y80610D01*
X145845Y80380D01*
X146000Y80073D01*
Y79307D01*
G01Y83250D02*
X142900D01*
X143520Y82790D01*
G01X146000D02*
Y83710D01*
G01X143417Y85622D02*
X143107Y85852D01*
X142952Y86120D01*
X142900Y86427D01*
X143003Y86810D01*
X143262Y87078D01*
X143572Y87155D01*
X143882Y87117D01*
X144140Y86963D01*
X144657Y86197D01*
X145018Y85852D01*
X145535Y85622D01*
X146000Y85545D01*
Y87155D01*
G01X141607Y110100D02*
Y107878D01*
X141760Y107413D01*
X142067Y107103D01*
X142450Y107000D01*
X142833Y107103D01*
X143140Y107413D01*
X143293Y107878D01*
Y110100D01*
G01X144822Y108292D02*
X145090Y108653D01*
X145320Y108860D01*
X145627Y108963D01*
X145895Y108860D01*
X146087Y108653D01*
X146240Y108343D01*
X146278Y107982D01*
X146240Y107672D01*
X146087Y107362D01*
X145857Y107103D01*
X145588Y107000D01*
X145282Y107103D01*
X145013Y107413D01*
X144860Y107878D01*
X144822Y108395D01*
X144898Y109067D01*
X145013Y109428D01*
X145205Y109790D01*
X145473Y110048D01*
X145742Y110100D01*
X146010Y109997D01*
X146202Y109738D01*
G01X142383Y128000D02*
Y131100D01*
X143342D01*
X143648Y130945D01*
X143840Y130738D01*
X143917Y130325D01*
X143840Y129912D01*
X143610Y129653D01*
X143342Y129498D01*
X142383D01*
G01X143342D02*
X143917Y128000D01*
G01X145522Y130583D02*
X145752Y130893D01*
X146020Y131048D01*
X146327Y131100D01*
X146710Y130997D01*
X146978Y130738D01*
X147055Y130428D01*
X147017Y130118D01*
X146863Y129860D01*
X146097Y129343D01*
X145752Y128982D01*
X145522Y128465D01*
X145445Y128000D01*
X147055D01*
G01X149350D02*
Y131100D01*
X148890Y130480D01*
G01Y128000D02*
X149810D01*
G01X158000Y130383D02*
X154900D01*
Y131342D01*
X155055Y131648D01*
X155262Y131840D01*
X155675Y131917D01*
X156088Y131840D01*
X156347Y131610D01*
X156502Y131342D01*
Y130383D01*
G01Y131342D02*
X158000Y131917D01*
G01X155417Y133522D02*
X155107Y133752D01*
X154952Y134020D01*
X154900Y134327D01*
X155003Y134710D01*
X155262Y134978D01*
X155572Y135055D01*
X155882Y135017D01*
X156140Y134863D01*
X156657Y134097D01*
X157018Y133752D01*
X157535Y133522D01*
X158000Y133445D01*
Y135055D01*
G01X155417Y136622D02*
X155107Y136852D01*
X154952Y137120D01*
X154900Y137427D01*
X155003Y137810D01*
X155262Y138078D01*
X155572Y138155D01*
X155882Y138117D01*
X156140Y137963D01*
X156657Y137197D01*
X157018Y136852D01*
X157535Y136622D01*
X158000Y136545D01*
Y138155D01*
G01X154000Y130383D02*
X150900D01*
Y131342D01*
X151055Y131648D01*
X151262Y131840D01*
X151675Y131917D01*
X152088Y131840D01*
X152347Y131610D01*
X152502Y131342D01*
Y130383D01*
G01Y131342D02*
X154000Y131917D01*
G01X151417Y133522D02*
X151107Y133752D01*
X150952Y134020D01*
X150900Y134327D01*
X151003Y134710D01*
X151262Y134978D01*
X151572Y135055D01*
X151882Y135017D01*
X152140Y134863D01*
X152657Y134097D01*
X153018Y133752D01*
X153535Y133522D01*
X154000Y133445D01*
Y135055D01*
G01X150900Y137350D02*
X151003Y137043D01*
X151262Y136813D01*
X151572Y136660D01*
X151985Y136545D01*
X152450Y136507D01*
X152915Y136545D01*
X153328Y136660D01*
X153638Y136813D01*
X153897Y137043D01*
X154000Y137350D01*
X153897Y137657D01*
X153638Y137887D01*
X153328Y138040D01*
X152915Y138155D01*
X152450Y138193D01*
X151985Y138155D01*
X151572Y138040D01*
X151262Y137887D01*
X151003Y137657D01*
X150900Y137350D01*
G01X142457Y155552D02*
X142302Y155322D01*
X142199Y155054D01*
Y154747D01*
X142354Y154402D01*
X142612Y154134D01*
X142922Y153942D01*
X143439Y153789D01*
X143904Y153750D01*
X144369Y153827D01*
X144679Y153942D01*
X144989Y154172D01*
X145196Y154441D01*
X145299Y154709D01*
Y154977D01*
X145196Y155246D01*
X145041Y155476D01*
X144834Y155667D01*
G01Y156966D02*
X145092Y157196D01*
X145247Y157464D01*
X145299Y157809D01*
X145196Y158154D01*
X144989Y158422D01*
X144627Y158614D01*
X144214Y158652D01*
X143801Y158576D01*
X143542Y158384D01*
X143336Y158116D01*
X143284Y157847D01*
X143336Y157579D01*
X143542Y157234D01*
X142199Y157349D01*
Y158384D01*
G01X150299Y157816D02*
X147199D01*
Y158775D01*
X147354Y159081D01*
X147561Y159273D01*
X147974Y159350D01*
X148387Y159273D01*
X148646Y159043D01*
X148801Y158775D01*
Y157816D01*
G01Y158775D02*
X150299Y159350D01*
G01Y161683D02*
X147199D01*
X147819Y161223D01*
G01X150299D02*
Y162143D01*
G01X165433Y56620D02*
X165625Y56310D01*
X165855Y56103D01*
X166123Y56000D01*
X166430Y56103D01*
X166660Y56310D01*
X166890Y56620D01*
X166967Y57033D01*
Y59100D01*
G01X169300Y56000D02*
Y59100D01*
X168840Y58480D01*
G01Y56000D02*
X169760D01*
G01X171672Y58583D02*
X171902Y58893D01*
X172170Y59048D01*
X172477Y59100D01*
X172860Y58997D01*
X173128Y58738D01*
X173205Y58428D01*
X173167Y58118D01*
X173013Y57860D01*
X172247Y57343D01*
X171902Y56982D01*
X171672Y56465D01*
X171595Y56000D01*
X173205D01*
G01X169383Y96000D02*
Y99100D01*
X170342D01*
X170648Y98945D01*
X170840Y98738D01*
X170917Y98325D01*
X170840Y97912D01*
X170610Y97653D01*
X170342Y97498D01*
X169383D01*
G01X170342D02*
X170917Y96000D01*
G01X172407Y96620D02*
X172637Y96258D01*
X172943Y96052D01*
X173288Y96000D01*
X173595Y96052D01*
X173902Y96310D01*
X174093Y96620D01*
X174132Y96930D01*
X174055Y97292D01*
X173787Y97550D01*
X173518Y97653D01*
X173173D01*
G01X173518D02*
X173748Y97808D01*
X173940Y98067D01*
X174017Y98377D01*
X173940Y98687D01*
X173748Y98945D01*
X173403Y99100D01*
X173058Y99048D01*
X172713Y98842D01*
G01X170307Y114100D02*
Y111878D01*
X170460Y111413D01*
X170767Y111103D01*
X171150Y111000D01*
X171533Y111103D01*
X171840Y111413D01*
X171993Y111878D01*
Y114100D01*
G01X174250Y111000D02*
Y114100D01*
X173790Y113480D01*
G01Y111000D02*
X174710D01*
G01X160158Y112993D02*
X160003Y112763D01*
X159900Y112495D01*
Y112188D01*
X160055Y111843D01*
X160313Y111575D01*
X160623Y111383D01*
X161140Y111230D01*
X161605Y111192D01*
X162070Y111268D01*
X162380Y111383D01*
X162690Y111613D01*
X162897Y111882D01*
X163000Y112150D01*
Y112418D01*
X162897Y112687D01*
X162742Y112917D01*
X162535Y113108D01*
G01X163000Y115250D02*
X159900D01*
X160520Y114790D01*
G01X163000D02*
Y115710D01*
G01Y118273D02*
X162328Y118350D01*
X161760Y118465D01*
X161243Y118618D01*
X160675Y118810D01*
X159900Y119117D01*
Y117583D01*
G01X164683Y152620D02*
X164875Y152310D01*
X165105Y152103D01*
X165373Y152000D01*
X165680Y152103D01*
X165910Y152310D01*
X166140Y152620D01*
X166217Y153033D01*
Y155100D01*
G01X168473Y152000D02*
X168550Y152672D01*
X168665Y153240D01*
X168818Y153757D01*
X169010Y154325D01*
X169317Y155100D01*
X167783D01*
G01X168000Y169217D02*
X163000Y170800D01*
X168000Y172383D01*
G01X166250Y171813D02*
Y169787D01*
G01X168000Y174507D02*
X163000D01*
Y175773D01*
X163250Y176280D01*
X163583Y176660D01*
X164083Y176977D01*
X164667Y177230D01*
X165500Y177293D01*
X166333Y177230D01*
X166917Y176977D01*
X167417Y176660D01*
X167750Y176280D01*
X168000Y175773D01*
Y174507D01*
G01X163417Y182393D02*
X163167Y182013D01*
X163000Y181570D01*
Y181063D01*
X163250Y180493D01*
X163667Y180050D01*
X164167Y179733D01*
X165000Y179480D01*
X165750Y179417D01*
X166500Y179543D01*
X167000Y179733D01*
X167500Y180113D01*
X167833Y180557D01*
X168000Y181000D01*
Y181443D01*
X167833Y181887D01*
X167583Y182267D01*
X167250Y182583D01*
G01X163000Y186100D02*
X163167Y185593D01*
X163583Y185213D01*
X164083Y184960D01*
X164750Y184770D01*
X165500Y184707D01*
X166250Y184770D01*
X166917Y184960D01*
X167417Y185213D01*
X167833Y185593D01*
X168000Y186100D01*
X167833Y186607D01*
X167417Y186987D01*
X166917Y187240D01*
X166250Y187430D01*
X165500Y187493D01*
X164750Y187430D01*
X164083Y187240D01*
X163583Y186987D01*
X163167Y186607D01*
X163000Y186100D01*
G01X186080Y45400D02*
X187347D01*
Y43900D01*
X186967Y43400D01*
X186523Y43067D01*
X185890Y42900D01*
X185257Y43067D01*
X184813Y43400D01*
X184433Y43900D01*
X184180Y44483D01*
X184053Y45150D01*
Y45733D01*
X184180Y46233D01*
X184433Y46817D01*
X184813Y47317D01*
X185193Y47650D01*
X185700Y47900D01*
X186143D01*
X186650Y47733D01*
X187030Y47400D01*
G01X189343Y42900D02*
Y47900D01*
X192257Y42900D01*
Y47900D01*
G01X194507Y42900D02*
Y47900D01*
X195773D01*
X196280Y47650D01*
X196660Y47317D01*
X196977Y46817D01*
X197230Y46233D01*
X197293Y45400D01*
X197230Y44567D01*
X196977Y43983D01*
X196660Y43483D01*
X196280Y43150D01*
X195773Y42900D01*
X194507D01*
G01X189383Y96000D02*
Y99100D01*
X190342D01*
X190648Y98945D01*
X190840Y98738D01*
X190917Y98325D01*
X190840Y97912D01*
X190610Y97653D01*
X190342Y97498D01*
X189383D01*
G01X190342D02*
X190917Y96000D01*
G01X192522Y98583D02*
X192752Y98893D01*
X193020Y99048D01*
X193327Y99100D01*
X193710Y98997D01*
X193978Y98738D01*
X194055Y98428D01*
X194017Y98118D01*
X193863Y97860D01*
X193097Y97343D01*
X192752Y96982D01*
X192522Y96465D01*
X192445Y96000D01*
X194055D01*
G01X196350D02*
X196618Y96052D01*
X196925Y96207D01*
X197117Y96465D01*
X197193Y96827D01*
X197117Y97188D01*
X196887Y97498D01*
X196542Y97653D01*
X196158D01*
X195928Y97757D01*
X195737Y98015D01*
X195660Y98377D01*
X195775Y98738D01*
X196043Y98997D01*
X196350Y99100D01*
X196657Y98997D01*
X196925Y98738D01*
X197040Y98377D01*
X196963Y98015D01*
X196772Y97757D01*
X196542Y97653D01*
X196158D01*
X195813Y97498D01*
X195583Y97188D01*
X195507Y96827D01*
X195583Y96465D01*
X195775Y96207D01*
X196082Y96052D01*
X196350Y96000D01*
G01X181993Y151842D02*
X181763Y151997D01*
X181495Y152100D01*
X181188D01*
X180843Y151945D01*
X180575Y151687D01*
X180383Y151377D01*
X180230Y150860D01*
X180192Y150395D01*
X180268Y149930D01*
X180383Y149620D01*
X180613Y149310D01*
X180882Y149103D01*
X181150Y149000D01*
X181418D01*
X181687Y149103D01*
X181917Y149258D01*
X182108Y149465D01*
G01X184250Y149000D02*
Y152100D01*
X183790Y151480D01*
G01Y149000D02*
X184710D01*
G01X187683Y152620D02*
X187875Y152310D01*
X188105Y152103D01*
X188373Y152000D01*
X188680Y152103D01*
X188910Y152310D01*
X189140Y152620D01*
X189217Y153033D01*
Y155100D01*
G01X191550Y152000D02*
X191818Y152052D01*
X192125Y152207D01*
X192317Y152465D01*
X192393Y152827D01*
X192317Y153188D01*
X192087Y153498D01*
X191742Y153653D01*
X191358D01*
X191128Y153757D01*
X190937Y154015D01*
X190860Y154377D01*
X190975Y154738D01*
X191243Y154997D01*
X191550Y155100D01*
X191857Y154997D01*
X192125Y154738D01*
X192240Y154377D01*
X192163Y154015D01*
X191972Y153757D01*
X191742Y153653D01*
X191358D01*
X191013Y153498D01*
X190783Y153188D01*
X190707Y152827D01*
X190783Y152465D01*
X190975Y152207D01*
X191282Y152052D01*
X191550Y152000D01*
G01X178500Y172280D02*
Y173547D01*
X180000D01*
X180500Y173167D01*
X180833Y172723D01*
X181000Y172090D01*
X180833Y171457D01*
X180500Y171013D01*
X180000Y170633D01*
X179417Y170380D01*
X178750Y170253D01*
X178167D01*
X177667Y170380D01*
X177083Y170633D01*
X176583Y171013D01*
X176250Y171393D01*
X176000Y171900D01*
Y172343D01*
X176167Y172850D01*
X176500Y173230D01*
G01X181000Y175543D02*
X176000D01*
X181000Y178457D01*
X176000D01*
G01X181000Y180707D02*
X176000D01*
Y181973D01*
X176250Y182480D01*
X176583Y182860D01*
X177083Y183177D01*
X177667Y183430D01*
X178500Y183493D01*
X179333Y183430D01*
X179917Y183177D01*
X180417Y182860D01*
X180750Y182480D01*
X181000Y181973D01*
Y180707D01*
G01X192000Y170217D02*
X187000Y171800D01*
X192000Y173383D01*
G01X190250Y172813D02*
Y170787D01*
G01X192000Y175507D02*
X187000D01*
Y176773D01*
X187250Y177280D01*
X187583Y177660D01*
X188083Y177977D01*
X188667Y178230D01*
X189500Y178293D01*
X190333Y178230D01*
X190917Y177977D01*
X191417Y177660D01*
X191750Y177280D01*
X192000Y176773D01*
Y175507D01*
G01X187417Y183393D02*
X187167Y183013D01*
X187000Y182570D01*
Y182063D01*
X187250Y181493D01*
X187667Y181050D01*
X188167Y180733D01*
X189000Y180480D01*
X189750Y180417D01*
X190500Y180543D01*
X191000Y180733D01*
X191500Y181113D01*
X191833Y181557D01*
X192000Y182000D01*
Y182443D01*
X191833Y182887D01*
X191583Y183267D01*
X191250Y183583D01*
G01X192000Y187100D02*
X187000D01*
X188000Y186340D01*
G01X192000D02*
Y187860D01*
G01X192307Y114100D02*
Y111878D01*
X192460Y111413D01*
X192767Y111103D01*
X193150Y111000D01*
X193533Y111103D01*
X193840Y111413D01*
X193993Y111878D01*
Y114100D01*
G01X195522Y113583D02*
X195752Y113893D01*
X196020Y114048D01*
X196327Y114100D01*
X196710Y113997D01*
X196978Y113738D01*
X197055Y113428D01*
X197017Y113118D01*
X196863Y112860D01*
X196097Y112343D01*
X195752Y111982D01*
X195522Y111465D01*
X195445Y111000D01*
X197055D01*
G01X204593Y150842D02*
X204363Y150997D01*
X204095Y151100D01*
X203788D01*
X203443Y150945D01*
X203175Y150687D01*
X202983Y150377D01*
X202830Y149860D01*
X202792Y149395D01*
X202868Y148930D01*
X202983Y148620D01*
X203213Y148310D01*
X203482Y148103D01*
X203750Y148000D01*
X204018D01*
X204287Y148103D01*
X204517Y148258D01*
X204708Y148465D01*
G01X206122Y150583D02*
X206352Y150893D01*
X206620Y151048D01*
X206927Y151100D01*
X207310Y150997D01*
X207578Y150738D01*
X207655Y150428D01*
X207617Y150118D01*
X207463Y149860D01*
X206697Y149343D01*
X206352Y148982D01*
X206122Y148465D01*
X206045Y148000D01*
X207655D01*
G01X201500Y172280D02*
Y173547D01*
X203000D01*
X203500Y173167D01*
X203833Y172723D01*
X204000Y172090D01*
X203833Y171457D01*
X203500Y171013D01*
X203000Y170633D01*
X202417Y170380D01*
X201750Y170253D01*
X201167D01*
X200667Y170380D01*
X200083Y170633D01*
X199583Y171013D01*
X199250Y171393D01*
X199000Y171900D01*
Y172343D01*
X199167Y172850D01*
X199500Y173230D01*
G01X204000Y175543D02*
X199000D01*
X204000Y178457D01*
X199000D01*
G01X204000Y180707D02*
X199000D01*
Y181973D01*
X199250Y182480D01*
X199583Y182860D01*
X200083Y183177D01*
X200667Y183430D01*
X201500Y183493D01*
X202333Y183430D01*
X202917Y183177D01*
X203417Y182860D01*
X203750Y182480D01*
X204000Y181973D01*
Y180707D01*
G01X212311Y-139358D02*
Y-186858D01*
G01Y-159358D02*
X382311D01*
G01X215103Y-151858D02*
X216561Y-146858D01*
X218019Y-151858D01*
G01X217494Y-150108D02*
X215628D01*
G01X219894Y-151858D02*
Y-146858D01*
X221353D01*
X221819Y-147108D01*
X222111Y-147442D01*
X222228Y-148108D01*
X222111Y-148775D01*
X221761Y-149192D01*
X221353Y-149442D01*
X219894D01*
G01X221353D02*
X222228Y-151858D01*
G01X225561Y-146858D02*
Y-151858D01*
G01X224219Y-146858D02*
X226903D01*
G01X228311D02*
X229128Y-151858D01*
X230061Y-146858D01*
X230994Y-151858D01*
X231811Y-146858D01*
G01X234561Y-151858D02*
X234094Y-151775D01*
X233686Y-151442D01*
X233336Y-150942D01*
X233103Y-150358D01*
X232986Y-149692D01*
Y-149025D01*
X233103Y-148358D01*
X233336Y-147775D01*
X233686Y-147275D01*
X234094Y-146942D01*
X234561Y-146858D01*
X235028Y-146942D01*
X235436Y-147275D01*
X235786Y-147775D01*
X236019Y-148358D01*
X236136Y-149025D01*
Y-149692D01*
X236019Y-150358D01*
X235786Y-150942D01*
X235436Y-151442D01*
X235028Y-151775D01*
X234561Y-151858D01*
G01X237894D02*
Y-146858D01*
X239353D01*
X239819Y-147108D01*
X240111Y-147442D01*
X240228Y-148108D01*
X240111Y-148775D01*
X239761Y-149192D01*
X239353Y-149442D01*
X237894D01*
G01X239353D02*
X240228Y-151858D01*
G01X242278D02*
Y-146858D01*
G01X244494D02*
X242278Y-149942D01*
G01X244844Y-151858D02*
X243269Y-148525D01*
G01X251278Y-151858D02*
Y-146858D01*
X252444D01*
X252911Y-147108D01*
X253261Y-147442D01*
X253553Y-147942D01*
X253786Y-148525D01*
X253844Y-149358D01*
X253786Y-150192D01*
X253553Y-150775D01*
X253261Y-151275D01*
X252911Y-151608D01*
X252444Y-151858D01*
X251278D01*
G01X255603D02*
X257061Y-146858D01*
X258519Y-151858D01*
G01X257994Y-150108D02*
X256128D01*
G01X261561Y-146858D02*
Y-151858D01*
G01X260219Y-146858D02*
X262903D01*
G01X267228Y-151858D02*
X264894D01*
Y-146858D01*
X267228D01*
G01X266294Y-149275D02*
X264894D01*
G01X212311Y-139358D02*
X382311D01*
G01X212311Y-66858D02*
Y-139358D01*
G01X215394Y-130858D02*
X215686Y-131358D01*
X216036Y-131692D01*
X216444Y-131858D01*
X216911Y-131692D01*
X217261Y-131358D01*
X217611Y-130858D01*
X217728Y-130192D01*
Y-126858D01*
G01X221061Y-131858D02*
X220594Y-131775D01*
X220186Y-131442D01*
X219836Y-130942D01*
X219603Y-130358D01*
X219486Y-129692D01*
Y-129025D01*
X219603Y-128358D01*
X219836Y-127775D01*
X220186Y-127275D01*
X220594Y-126942D01*
X221061Y-126858D01*
X221528Y-126942D01*
X221936Y-127275D01*
X222286Y-127775D01*
X222519Y-128358D01*
X222636Y-129025D01*
Y-129692D01*
X222519Y-130358D01*
X222286Y-130942D01*
X221936Y-131442D01*
X221528Y-131775D01*
X221061Y-131858D01*
G01X226028Y-129192D02*
X226261Y-128942D01*
X226436Y-128525D01*
X226553Y-127942D01*
X226436Y-127442D01*
X226203Y-127108D01*
X225794Y-126858D01*
X224219D01*
Y-131858D01*
X226144D01*
X226553Y-131525D01*
X226786Y-131025D01*
X226903Y-130442D01*
X226786Y-129858D01*
X226436Y-129358D01*
X226028Y-129192D01*
X224219D01*
G01X233394Y-133525D02*
X234561Y-126858D01*
G01X235728D02*
X234561Y-133525D01*
G01X232811Y-131025D02*
X236311D01*
G01Y-129358D02*
X232811D01*
G01X217028Y-101692D02*
X217261Y-101442D01*
X217436Y-101025D01*
X217553Y-100442D01*
X217436Y-99942D01*
X217203Y-99608D01*
X216794Y-99358D01*
X215219D01*
Y-104358D01*
X217144D01*
X217553Y-104025D01*
X217786Y-103525D01*
X217903Y-102942D01*
X217786Y-102358D01*
X217436Y-101858D01*
X217028Y-101692D01*
X215219D01*
G01X221061Y-104358D02*
X220594Y-104275D01*
X220186Y-103942D01*
X219836Y-103442D01*
X219603Y-102858D01*
X219486Y-102192D01*
Y-101525D01*
X219603Y-100858D01*
X219836Y-100275D01*
X220186Y-99775D01*
X220594Y-99442D01*
X221061Y-99358D01*
X221528Y-99442D01*
X221936Y-99775D01*
X222286Y-100275D01*
X222519Y-100858D01*
X222636Y-101525D01*
Y-102192D01*
X222519Y-102858D01*
X222286Y-103442D01*
X221936Y-103942D01*
X221528Y-104275D01*
X221061Y-104358D01*
G01X224103D02*
X225561Y-99358D01*
X227019Y-104358D01*
G01X226494Y-102608D02*
X224628D01*
G01X228894Y-104358D02*
Y-99358D01*
X230353D01*
X230819Y-99608D01*
X231111Y-99942D01*
X231228Y-100608D01*
X231111Y-101275D01*
X230761Y-101692D01*
X230353Y-101942D01*
X228894D01*
G01X230353D02*
X231228Y-104358D01*
G01X233278D02*
Y-99358D01*
X234444D01*
X234911Y-99608D01*
X235261Y-99942D01*
X235553Y-100442D01*
X235786Y-101025D01*
X235844Y-101858D01*
X235786Y-102692D01*
X235553Y-103275D01*
X235261Y-103775D01*
X234911Y-104108D01*
X234444Y-104358D01*
X233278D01*
G01X242219D02*
Y-99358D01*
X244903Y-104358D01*
Y-99358D01*
G01X246603Y-104358D02*
X248061Y-99358D01*
X249519Y-104358D01*
G01X248994Y-102608D02*
X247128D01*
G01X251044Y-104358D02*
Y-99358D01*
X252561Y-103525D01*
X254078Y-99358D01*
Y-104358D01*
G01X258228D02*
X255894D01*
Y-99358D01*
X258228D01*
G01X257294Y-101775D02*
X255894D01*
G01X212311Y-121858D02*
X382311D01*
G01X215394Y-74358D02*
Y-69358D01*
X216794D01*
X217261Y-69608D01*
X217611Y-70192D01*
X217728Y-70858D01*
X217611Y-71525D01*
X217319Y-72025D01*
X216794Y-72275D01*
X215394D01*
G01X219603Y-74358D02*
X221061Y-69358D01*
X222519Y-74358D01*
G01X221994Y-72608D02*
X220128D01*
G01X224394Y-74358D02*
Y-69358D01*
X225853D01*
X226319Y-69608D01*
X226611Y-69942D01*
X226728Y-70608D01*
X226611Y-71275D01*
X226261Y-71692D01*
X225853Y-71942D01*
X224394D01*
G01X225853D02*
X226728Y-74358D01*
G01X230061Y-69358D02*
Y-74358D01*
G01X228719Y-69358D02*
X231403D01*
G01X237719Y-74358D02*
Y-69358D01*
X240403Y-74358D01*
Y-69358D01*
G01X243561Y-74358D02*
X243094Y-74275D01*
X242686Y-73942D01*
X242336Y-73442D01*
X242103Y-72858D01*
X241986Y-72192D01*
Y-71525D01*
X242103Y-70858D01*
X242336Y-70275D01*
X242686Y-69775D01*
X243094Y-69442D01*
X243561Y-69358D01*
X244028Y-69442D01*
X244436Y-69775D01*
X244786Y-70275D01*
X245019Y-70858D01*
X245136Y-71525D01*
Y-72192D01*
X245019Y-72858D01*
X244786Y-73442D01*
X244436Y-73942D01*
X244028Y-74275D01*
X243561Y-74358D01*
G01X247011Y-74525D02*
X249111Y-69358D01*
G01X251394Y-74358D02*
Y-69358D01*
X252853D01*
X253319Y-69608D01*
X253611Y-69942D01*
X253728Y-70608D01*
X253611Y-71275D01*
X253261Y-71692D01*
X252853Y-71942D01*
X251394D01*
G01X252853D02*
X253728Y-74358D01*
G01X258228D02*
X255894D01*
Y-69358D01*
X258228D01*
G01X257294Y-71775D02*
X255894D01*
G01X260103Y-69358D02*
X261561Y-74358D01*
X263019Y-69358D01*
G01X208383Y96000D02*
Y99100D01*
X209342D01*
X209648Y98945D01*
X209840Y98738D01*
X209917Y98325D01*
X209840Y97912D01*
X209610Y97653D01*
X209342Y97498D01*
X208383D01*
G01X209342D02*
X209917Y96000D01*
G01X212710D02*
Y99100D01*
X211292Y96878D01*
X213208D01*
G01X215307Y114100D02*
Y111878D01*
X215460Y111413D01*
X215767Y111103D01*
X216150Y111000D01*
X216533Y111103D01*
X216840Y111413D01*
X216993Y111878D01*
Y114100D01*
G01X218407Y111620D02*
X218637Y111258D01*
X218943Y111052D01*
X219288Y111000D01*
X219595Y111052D01*
X219902Y111310D01*
X220093Y111620D01*
X220132Y111930D01*
X220055Y112292D01*
X219787Y112550D01*
X219518Y112653D01*
X219173D01*
G01X219518D02*
X219748Y112808D01*
X219940Y113067D01*
X220017Y113377D01*
X219940Y113687D01*
X219748Y113945D01*
X219403Y114100D01*
X219058Y114048D01*
X218713Y113842D01*
G01X210683Y152620D02*
X210875Y152310D01*
X211105Y152103D01*
X211373Y152000D01*
X211680Y152103D01*
X211910Y152310D01*
X212140Y152620D01*
X212217Y153033D01*
Y155100D01*
G01X213898Y152362D02*
X214167Y152103D01*
X214473Y152000D01*
X214780Y152103D01*
X215048Y152413D01*
X215240Y152878D01*
X215317Y153343D01*
Y153912D01*
X215240Y154377D01*
X215048Y154790D01*
X214818Y154997D01*
X214550Y155100D01*
X214243Y154997D01*
X214013Y154790D01*
X213860Y154480D01*
X213783Y154067D01*
X213860Y153705D01*
X214052Y153343D01*
X214282Y153137D01*
X214550Y153085D01*
X214857Y153188D01*
X215087Y153447D01*
X215317Y153912D01*
G01X215000Y169217D02*
X210000Y170800D01*
X215000Y172383D01*
G01X213250Y171813D02*
Y169787D01*
G01X215000Y174507D02*
X210000D01*
Y175773D01*
X210250Y176280D01*
X210583Y176660D01*
X211083Y176977D01*
X211667Y177230D01*
X212500Y177293D01*
X213333Y177230D01*
X213917Y176977D01*
X214417Y176660D01*
X214750Y176280D01*
X215000Y175773D01*
Y174507D01*
G01X210417Y182393D02*
X210167Y182013D01*
X210000Y181570D01*
Y181063D01*
X210250Y180493D01*
X210667Y180050D01*
X211167Y179733D01*
X212000Y179480D01*
X212750Y179417D01*
X213500Y179543D01*
X214000Y179733D01*
X214500Y180113D01*
X214833Y180557D01*
X215000Y181000D01*
Y181443D01*
X214833Y181887D01*
X214583Y182267D01*
X214250Y182583D01*
G01X210833Y184897D02*
X210333Y185277D01*
X210083Y185720D01*
X210000Y186227D01*
X210167Y186860D01*
X210583Y187303D01*
X211083Y187430D01*
X211584Y187367D01*
X212000Y187113D01*
X212833Y185847D01*
X213417Y185277D01*
X214250Y184897D01*
X215000Y184770D01*
Y187430D01*
G01X226040Y-175800D02*
X226787Y-176425D01*
X227627Y-176800D01*
X228373D01*
X229120Y-176425D01*
X229680Y-175800D01*
X229960Y-174925D01*
X229773Y-174050D01*
X229307Y-173300D01*
X228467Y-172800D01*
X227347Y-172550D01*
X226693Y-172050D01*
X226413Y-171175D01*
X226600Y-170300D01*
X227067Y-169675D01*
X227720Y-169300D01*
X228373D01*
X229027Y-169550D01*
X229587Y-170175D01*
G01X234380Y-169300D02*
X236620D01*
G01X235500D02*
Y-176800D01*
G01X234380D02*
X236620D01*
G01X241133Y-169300D02*
Y-176800D01*
X244867D01*
G01X248447D02*
Y-169300D01*
G01X251993D02*
X248447Y-173925D01*
G01X252553Y-176800D02*
X250033Y-171800D01*
G01X256040Y-175800D02*
X256787Y-176425D01*
X257627Y-176800D01*
X258373D01*
X259120Y-176425D01*
X259680Y-175800D01*
X259960Y-174925D01*
X259773Y-174050D01*
X259307Y-173300D01*
X258467Y-172800D01*
X257347Y-172550D01*
X256693Y-172050D01*
X256413Y-171175D01*
X256600Y-170300D01*
X257067Y-169675D01*
X257720Y-169300D01*
X258373D01*
X259027Y-169550D01*
X259587Y-170175D01*
G01X267553Y-169925D02*
X266993Y-169550D01*
X266340Y-169300D01*
X265593D01*
X264753Y-169675D01*
X264100Y-170300D01*
X263633Y-171050D01*
X263260Y-172300D01*
X263167Y-173425D01*
X263353Y-174550D01*
X263633Y-175300D01*
X264193Y-176050D01*
X264847Y-176550D01*
X265500Y-176800D01*
X266153D01*
X266807Y-176550D01*
X267367Y-176175D01*
X267833Y-175675D01*
G01X271133Y-176800D02*
Y-169300D01*
X273467D01*
X274213Y-169675D01*
X274680Y-170175D01*
X274867Y-171175D01*
X274680Y-172175D01*
X274120Y-172800D01*
X273467Y-173175D01*
X271133D01*
G01X273467D02*
X274867Y-176800D01*
G01X282367D02*
X278633D01*
Y-169300D01*
X282367D01*
G01X280873Y-172925D02*
X278633D01*
G01X289867Y-176800D02*
X286133D01*
Y-169300D01*
X289867D01*
G01X288373Y-172925D02*
X286133D01*
G01X293353Y-176800D02*
Y-169300D01*
X297647Y-176800D01*
Y-169300D01*
G01X310500D02*
Y-176800D01*
G01X308353Y-169300D02*
X312647D01*
G01X318000Y-176800D02*
X317253Y-176675D01*
X316600Y-176175D01*
X316040Y-175425D01*
X315667Y-174550D01*
X315480Y-173550D01*
Y-172550D01*
X315667Y-171550D01*
X316040Y-170675D01*
X316600Y-169925D01*
X317253Y-169425D01*
X318000Y-169300D01*
X318747Y-169425D01*
X319400Y-169925D01*
X319960Y-170675D01*
X320333Y-171550D01*
X320520Y-172550D01*
Y-173550D01*
X320333Y-174550D01*
X319960Y-175425D01*
X319400Y-176175D01*
X318747Y-176675D01*
X318000Y-176800D01*
G01X323633D02*
Y-169300D01*
X325873D01*
X326620Y-169675D01*
X327180Y-170550D01*
X327367Y-171550D01*
X327180Y-172550D01*
X326713Y-173300D01*
X325873Y-173675D01*
X323633D01*
G01X338540Y-175800D02*
X339287Y-176425D01*
X340127Y-176800D01*
X340873D01*
X341620Y-176425D01*
X342180Y-175800D01*
X342460Y-174925D01*
X342273Y-174050D01*
X341807Y-173300D01*
X340967Y-172800D01*
X339847Y-172550D01*
X339193Y-172050D01*
X338913Y-171175D01*
X339100Y-170300D01*
X339567Y-169675D01*
X340220Y-169300D01*
X340873D01*
X341527Y-169550D01*
X342087Y-170175D01*
G01X346880Y-169300D02*
X349120D01*
G01X348000D02*
Y-176800D01*
G01X346880D02*
X349120D01*
G01X353447D02*
Y-169300D01*
X355313D01*
X356060Y-169675D01*
X356620Y-170175D01*
X357087Y-170925D01*
X357460Y-171800D01*
X357553Y-173050D01*
X357460Y-174300D01*
X357087Y-175175D01*
X356620Y-175925D01*
X356060Y-176425D01*
X355313Y-176800D01*
X353447D01*
G01X364867D02*
X361133D01*
Y-169300D01*
X364867D01*
G01X363373Y-172925D02*
X361133D01*
G01X236200Y-108667D02*
X235600Y-108267D01*
X234900Y-108000D01*
X234100D01*
X233200Y-108400D01*
X232500Y-109067D01*
X232000Y-109867D01*
X231600Y-111200D01*
X231500Y-112400D01*
X231700Y-113600D01*
X232000Y-114400D01*
X232600Y-115200D01*
X233300Y-115733D01*
X234000Y-116000D01*
X234700D01*
X235400Y-115733D01*
X236000Y-115334D01*
X236500Y-114800D01*
G01X239400Y-116000D02*
Y-108000D01*
X242000Y-114667D01*
X244600Y-108000D01*
Y-116000D01*
G01X247000Y-118667D02*
X253000D01*
G01X256000Y-116000D02*
Y-108000D01*
X258400D01*
X259200Y-108400D01*
X259800Y-109333D01*
X260000Y-110400D01*
X259800Y-111467D01*
X259300Y-112267D01*
X258400Y-112667D01*
X256000D01*
G01X268200Y-108667D02*
X267600Y-108267D01*
X266900Y-108000D01*
X266100D01*
X265200Y-108400D01*
X264500Y-109067D01*
X264000Y-109867D01*
X263600Y-111200D01*
X263500Y-112400D01*
X263700Y-113600D01*
X264000Y-114400D01*
X264600Y-115200D01*
X265300Y-115733D01*
X266000Y-116000D01*
X266700D01*
X267400Y-115733D01*
X268000Y-115334D01*
X268500Y-114800D01*
G01X274800Y-111733D02*
X275200Y-111333D01*
X275500Y-110667D01*
X275700Y-109733D01*
X275500Y-108933D01*
X275100Y-108400D01*
X274400Y-108000D01*
X271700D01*
Y-116000D01*
X275000D01*
X275700Y-115467D01*
X276100Y-114667D01*
X276300Y-113733D01*
X276100Y-112800D01*
X275500Y-112000D01*
X274800Y-111733D01*
X271700D01*
G01X279000Y-118667D02*
X285000D01*
G01X287500Y-108000D02*
X290000Y-116000D01*
X292500Y-108000D01*
G01X296100Y-109333D02*
X296700Y-108534D01*
X297400Y-108133D01*
X298200Y-108000D01*
X299200Y-108267D01*
X299900Y-108933D01*
X300100Y-109733D01*
X300000Y-110534D01*
X299600Y-111200D01*
X297600Y-112533D01*
X296700Y-113467D01*
X296100Y-114800D01*
X295900Y-116000D01*
X300100D01*
G01X230300Y99283D02*
X227200D01*
Y100242D01*
X227355Y100548D01*
X227562Y100740D01*
X227975Y100817D01*
X228388Y100740D01*
X228647Y100510D01*
X228802Y100242D01*
Y99283D01*
G01Y100242D02*
X230300Y100817D01*
G01Y103150D02*
X227200D01*
X227820Y102690D01*
G01X230300D02*
Y103610D01*
G01Y106250D02*
X227200D01*
X227820Y105790D01*
G01X230300D02*
Y106710D01*
G01X237158Y94593D02*
X237003Y94363D01*
X236900Y94095D01*
Y93788D01*
X237055Y93443D01*
X237313Y93175D01*
X237623Y92983D01*
X238140Y92830D01*
X238605Y92792D01*
X239070Y92868D01*
X239380Y92983D01*
X239690Y93213D01*
X239897Y93482D01*
X240000Y93750D01*
Y94018D01*
X239897Y94287D01*
X239742Y94517D01*
X239535Y94708D01*
G01X240000Y96850D02*
X236900D01*
X237520Y96390D01*
G01X240000D02*
Y97310D01*
G01X239380Y99107D02*
X239742Y99337D01*
X239948Y99643D01*
X240000Y99988D01*
X239948Y100295D01*
X239690Y100602D01*
X239380Y100793D01*
X239070Y100832D01*
X238708Y100755D01*
X238450Y100487D01*
X238347Y100218D01*
Y99873D01*
G01Y100218D02*
X238192Y100448D01*
X237933Y100640D01*
X237623Y100717D01*
X237313Y100640D01*
X237055Y100448D01*
X236900Y100103D01*
X236952Y99758D01*
X237158Y99413D01*
G01X234700Y116083D02*
X231600D01*
Y117042D01*
X231755Y117348D01*
X231962Y117540D01*
X232375Y117617D01*
X232788Y117540D01*
X233047Y117310D01*
X233202Y117042D01*
Y116083D01*
G01Y117042D02*
X234700Y117617D01*
G01Y119950D02*
X231600D01*
X232220Y119490D01*
G01X234700D02*
Y120410D01*
G01X231600Y123050D02*
X231703Y122743D01*
X231962Y122513D01*
X232272Y122360D01*
X232685Y122245D01*
X233150Y122207D01*
X233615Y122245D01*
X234028Y122360D01*
X234338Y122513D01*
X234597Y122743D01*
X234700Y123050D01*
X234597Y123357D01*
X234338Y123587D01*
X234028Y123740D01*
X233615Y123855D01*
X233150Y123893D01*
X232685Y123855D01*
X232272Y123740D01*
X231962Y123587D01*
X231703Y123357D01*
X231600Y123050D01*
G01X226993Y151842D02*
X226763Y151997D01*
X226495Y152100D01*
X226188D01*
X225843Y151945D01*
X225575Y151687D01*
X225383Y151377D01*
X225230Y150860D01*
X225192Y150395D01*
X225268Y149930D01*
X225383Y149620D01*
X225613Y149310D01*
X225882Y149103D01*
X226150Y149000D01*
X226418D01*
X226687Y149103D01*
X226917Y149258D01*
X227108Y149465D01*
G01X228407Y149620D02*
X228637Y149258D01*
X228943Y149052D01*
X229288Y149000D01*
X229595Y149052D01*
X229902Y149310D01*
X230093Y149620D01*
X230132Y149930D01*
X230055Y150292D01*
X229787Y150550D01*
X229518Y150653D01*
X229173D01*
G01X229518D02*
X229748Y150808D01*
X229940Y151067D01*
X230017Y151377D01*
X229940Y151687D01*
X229748Y151945D01*
X229403Y152100D01*
X229058Y152048D01*
X228713Y151842D01*
G01X225500Y171280D02*
Y172547D01*
X227000D01*
X227500Y172167D01*
X227833Y171723D01*
X228000Y171090D01*
X227833Y170457D01*
X227500Y170013D01*
X227000Y169633D01*
X226417Y169380D01*
X225750Y169253D01*
X225167D01*
X224667Y169380D01*
X224083Y169633D01*
X223583Y170013D01*
X223250Y170393D01*
X223000Y170900D01*
Y171343D01*
X223167Y171850D01*
X223500Y172230D01*
G01X228000Y174543D02*
X223000D01*
X228000Y177457D01*
X223000D01*
G01X228000Y179707D02*
X223000D01*
Y180973D01*
X223250Y181480D01*
X223583Y181860D01*
X224083Y182177D01*
X224667Y182430D01*
X225500Y182493D01*
X226333Y182430D01*
X226917Y182177D01*
X227417Y181860D01*
X227750Y181480D01*
X228000Y180973D01*
Y179707D01*
G01X251207Y87000D02*
Y92000D01*
X252473D01*
X252980Y91750D01*
X253360Y91417D01*
X253677Y90917D01*
X253930Y90333D01*
X253993Y89500D01*
X253930Y88667D01*
X253677Y88083D01*
X253360Y87583D01*
X252980Y87250D01*
X252473Y87000D01*
X251207D01*
G01X259093Y91583D02*
X258713Y91833D01*
X258270Y92000D01*
X257763D01*
X257193Y91750D01*
X256750Y91333D01*
X256433Y90833D01*
X256180Y90000D01*
X256117Y89250D01*
X256243Y88500D01*
X256433Y88000D01*
X256813Y87500D01*
X257257Y87167D01*
X257700Y87000D01*
X258143D01*
X258587Y87167D01*
X258967Y87417D01*
X259283Y87750D01*
G01X267900Y87000D02*
X267393Y87083D01*
X266950Y87417D01*
X266570Y87917D01*
X266317Y88500D01*
X266190Y89167D01*
Y89833D01*
X266317Y90500D01*
X266570Y91083D01*
X266950Y91583D01*
X267393Y91917D01*
X267900Y92000D01*
X268407Y91917D01*
X268850Y91583D01*
X269230Y91083D01*
X269483Y90500D01*
X269610Y89833D01*
Y89167D01*
X269483Y88500D01*
X269230Y87917D01*
X268850Y87417D01*
X268407Y87083D01*
X267900Y87000D01*
G01X271607Y92000D02*
Y88417D01*
X271860Y87666D01*
X272367Y87167D01*
X273000Y87000D01*
X273633Y87167D01*
X274140Y87666D01*
X274393Y88417D01*
Y92000D01*
G01X278100D02*
Y87000D01*
G01X276643Y92000D02*
X279557D01*
G01X271000Y-88500D02*
Y-80500D01*
X273400D01*
X274200Y-80900D01*
X274800Y-81833D01*
X275000Y-82900D01*
X274800Y-83967D01*
X274300Y-84767D01*
X273400Y-85167D01*
X271000D01*
G01X278500Y-88500D02*
X281000Y-80500D01*
X283500Y-88500D01*
G01X282600Y-85700D02*
X279400D01*
G01X287000Y-88500D02*
Y-80500D01*
X289500D01*
X290300Y-80900D01*
X290800Y-81433D01*
X291000Y-82500D01*
X290800Y-83567D01*
X290200Y-84233D01*
X289500Y-84633D01*
X287000D01*
G01X289500D02*
X291000Y-88500D01*
G01X297000Y-80500D02*
Y-88500D01*
G01X294700Y-80500D02*
X299300D01*
G01X310700Y-88500D02*
Y-80500D01*
X315300Y-88500D01*
Y-80500D01*
G01X318800D02*
Y-86233D01*
X319200Y-87434D01*
X320000Y-88233D01*
X321000Y-88500D01*
X322000Y-88233D01*
X322800Y-87434D01*
X323200Y-86233D01*
Y-80500D01*
G01X326400Y-88500D02*
Y-80500D01*
X329000Y-87167D01*
X331600Y-80500D01*
Y-88500D01*
G01X337800Y-84233D02*
X338200Y-83833D01*
X338500Y-83167D01*
X338700Y-82233D01*
X338500Y-81433D01*
X338100Y-80900D01*
X337400Y-80500D01*
X334700D01*
Y-88500D01*
X338000D01*
X338700Y-87967D01*
X339100Y-87167D01*
X339300Y-86233D01*
X339100Y-85300D01*
X338500Y-84500D01*
X337800Y-84233D01*
X334700D01*
G01X347000Y-88500D02*
X343000D01*
Y-80500D01*
X347000D01*
G01X345400Y-84367D02*
X343000D01*
G01X351000Y-88500D02*
Y-80500D01*
X353500D01*
X354300Y-80900D01*
X354800Y-81433D01*
X355000Y-82500D01*
X354800Y-83567D01*
X354200Y-84233D01*
X353500Y-84633D01*
X351000D01*
G01X353500D02*
X355000Y-88500D01*
G01X270158Y44493D02*
X270003Y44263D01*
X269900Y43995D01*
Y43688D01*
X270055Y43343D01*
X270313Y43075D01*
X270623Y42883D01*
X271140Y42730D01*
X271605Y42692D01*
X272070Y42768D01*
X272380Y42883D01*
X272690Y43113D01*
X272897Y43382D01*
X273000Y43650D01*
Y43918D01*
X272897Y44187D01*
X272742Y44417D01*
X272535Y44608D01*
G01X273000Y46750D02*
X269900D01*
X270520Y46290D01*
G01X273000D02*
Y47210D01*
G01Y50310D02*
X269900D01*
X272122Y48892D01*
Y50808D01*
G01X261683Y139620D02*
X261875Y139310D01*
X262105Y139103D01*
X262373Y139000D01*
X262680Y139103D01*
X262910Y139310D01*
X263140Y139620D01*
X263217Y140033D01*
Y142100D01*
G01X264822Y140292D02*
X265090Y140653D01*
X265320Y140860D01*
X265627Y140963D01*
X265895Y140860D01*
X266087Y140653D01*
X266240Y140343D01*
X266278Y139982D01*
X266240Y139672D01*
X266087Y139362D01*
X265857Y139103D01*
X265588Y139000D01*
X265282Y139103D01*
X265013Y139413D01*
X264860Y139878D01*
X264822Y140395D01*
X264898Y141067D01*
X265013Y141428D01*
X265205Y141790D01*
X265473Y142048D01*
X265742Y142100D01*
X266010Y141997D01*
X266202Y141738D01*
G01X284280Y30500D02*
X285547D01*
Y29000D01*
X285167Y28500D01*
X284723Y28167D01*
X284090Y28000D01*
X283457Y28167D01*
X283013Y28500D01*
X282633Y29000D01*
X282380Y29583D01*
X282253Y30250D01*
Y30833D01*
X282380Y31333D01*
X282633Y31917D01*
X283013Y32417D01*
X283393Y32750D01*
X283900Y33000D01*
X284343D01*
X284850Y32833D01*
X285230Y32500D01*
G01X287543Y28000D02*
Y33000D01*
X290457Y28000D01*
Y33000D01*
G01X292707Y28000D02*
Y33000D01*
X293973D01*
X294480Y32750D01*
X294860Y32417D01*
X295177Y31917D01*
X295430Y31333D01*
X295493Y30500D01*
X295430Y29667D01*
X295177Y29083D01*
X294860Y28583D01*
X294480Y28250D01*
X293973Y28000D01*
X292707D01*
G01X276683Y35620D02*
X276875Y35310D01*
X277105Y35103D01*
X277373Y35000D01*
X277680Y35103D01*
X277910Y35310D01*
X278140Y35620D01*
X278217Y36033D01*
Y38100D01*
G01X281010Y35000D02*
Y38100D01*
X279592Y35878D01*
X281508D01*
G01X279217Y61000D02*
X280800Y56000D01*
X282383Y61000D01*
G01X285900Y56000D02*
X285393Y56083D01*
X284950Y56417D01*
X284570Y56917D01*
X284317Y57500D01*
X284190Y58167D01*
Y58833D01*
X284317Y59500D01*
X284570Y60083D01*
X284950Y60583D01*
X285393Y60917D01*
X285900Y61000D01*
X286407Y60917D01*
X286850Y60583D01*
X287230Y60083D01*
X287483Y59500D01*
X287610Y58833D01*
Y58167D01*
X287483Y57500D01*
X287230Y56917D01*
X286850Y56417D01*
X286407Y56083D01*
X285900Y56000D01*
G01X289607Y61000D02*
Y57417D01*
X289860Y56666D01*
X290367Y56167D01*
X291000Y56000D01*
X291633Y56167D01*
X292140Y56666D01*
X292393Y57417D01*
Y61000D01*
G01X296100D02*
Y56000D01*
G01X294643Y61000D02*
X297557D01*
G01X297811Y-146358D02*
X297011Y-146625D01*
X296411Y-147292D01*
X296011Y-148092D01*
X295711Y-149158D01*
X295611Y-150358D01*
X295711Y-151558D01*
X296011Y-152625D01*
X296411Y-153425D01*
X297011Y-154092D01*
X297811Y-154358D01*
X298611Y-154092D01*
X299211Y-153425D01*
X299611Y-152625D01*
X299911Y-151558D01*
X300011Y-150358D01*
X299911Y-149158D01*
X299611Y-148092D01*
X299211Y-147292D01*
X298611Y-146625D01*
X297811Y-146358D01*
G01X303611Y-152758D02*
X304211Y-153692D01*
X305011Y-154225D01*
X305911Y-154358D01*
X306711Y-154225D01*
X307511Y-153558D01*
X308011Y-152758D01*
X308111Y-151958D01*
X307911Y-151025D01*
X307211Y-150358D01*
X306511Y-150092D01*
X305611D01*
G01X306511D02*
X307111Y-149692D01*
X307611Y-149025D01*
X307811Y-148225D01*
X307611Y-147425D01*
X307111Y-146758D01*
X306211Y-146358D01*
X305311Y-146492D01*
X304411Y-147025D01*
G01X311311Y-154358D02*
X313811Y-146358D01*
X316311Y-154358D01*
G01X315411Y-151558D02*
X312211D01*
G01X319811Y-154358D02*
Y-146358D01*
X322211D01*
X323011Y-146758D01*
X323611Y-147692D01*
X323811Y-148758D01*
X323611Y-149825D01*
X323111Y-150625D01*
X322211Y-151025D01*
X319811D01*
G01X327811Y-154358D02*
Y-146358D01*
X330311D01*
X331111Y-146758D01*
X331611Y-147292D01*
X331811Y-148358D01*
X331611Y-149425D01*
X331011Y-150092D01*
X330311Y-150492D01*
X327811D01*
G01X330311D02*
X331811Y-154358D01*
G01X335911Y-147692D02*
X336511Y-146892D01*
X337211Y-146492D01*
X338011Y-146358D01*
X339011Y-146625D01*
X339711Y-147292D01*
X339911Y-148092D01*
X339811Y-148892D01*
X339411Y-149558D01*
X337411Y-150892D01*
X336511Y-151825D01*
X335911Y-153159D01*
X335711Y-154358D01*
X339911D01*
G01X345811Y-146358D02*
X345011Y-146625D01*
X344411Y-147292D01*
X344011Y-148092D01*
X343711Y-149158D01*
X343611Y-150358D01*
X343711Y-151558D01*
X344011Y-152625D01*
X344411Y-153425D01*
X345011Y-154092D01*
X345811Y-154358D01*
X346611Y-154092D01*
X347211Y-153425D01*
X347611Y-152625D01*
X347911Y-151558D01*
X348011Y-150358D01*
X347911Y-149158D01*
X347611Y-148092D01*
X347211Y-147292D01*
X346611Y-146625D01*
X345811Y-146358D01*
G01X353811Y-154358D02*
Y-146358D01*
X352611Y-147958D01*
G01Y-154358D02*
X355011D01*
G01X360111Y-153425D02*
X360811Y-154092D01*
X361611Y-154358D01*
X362411Y-154092D01*
X363111Y-153292D01*
X363611Y-152092D01*
X363811Y-150892D01*
Y-149425D01*
X363611Y-148225D01*
X363111Y-147158D01*
X362511Y-146625D01*
X361811Y-146358D01*
X361011Y-146625D01*
X360411Y-147158D01*
X360011Y-147958D01*
X359811Y-149025D01*
X360011Y-149958D01*
X360511Y-150892D01*
X361111Y-151425D01*
X361811Y-151558D01*
X362611Y-151292D01*
X363211Y-150625D01*
X363811Y-149425D01*
G01X290500Y94717D02*
X295500Y96300D01*
X290500Y97883D01*
G01X295500Y101400D02*
X295417Y100893D01*
X295083Y100450D01*
X294583Y100070D01*
X294000Y99817D01*
X293333Y99690D01*
X292667D01*
X292000Y99817D01*
X291417Y100070D01*
X290917Y100450D01*
X290583Y100893D01*
X290500Y101400D01*
X290583Y101907D01*
X290917Y102350D01*
X291417Y102730D01*
X292000Y102983D01*
X292667Y103110D01*
X293333D01*
X294000Y102983D01*
X294583Y102730D01*
X295083Y102350D01*
X295417Y101907D01*
X295500Y101400D01*
G01X290500Y105107D02*
X294083D01*
X294834Y105360D01*
X295333Y105867D01*
X295500Y106500D01*
X295333Y107133D01*
X294834Y107640D01*
X294083Y107893D01*
X290500D01*
G01Y111600D02*
X295500D01*
G01X290500Y110143D02*
Y113057D01*
G01X292500Y124280D02*
Y125547D01*
X294000D01*
X294500Y125167D01*
X294833Y124723D01*
X295000Y124090D01*
X294833Y123457D01*
X294500Y123013D01*
X294000Y122633D01*
X293417Y122380D01*
X292750Y122253D01*
X292167D01*
X291667Y122380D01*
X291083Y122633D01*
X290583Y123013D01*
X290250Y123393D01*
X290000Y123900D01*
Y124343D01*
X290167Y124850D01*
X290500Y125230D01*
G01X295000Y127543D02*
X290000D01*
X295000Y130457D01*
X290000D01*
G01X295000Y132707D02*
X290000D01*
Y133973D01*
X290250Y134480D01*
X290583Y134860D01*
X291083Y135177D01*
X291667Y135430D01*
X292500Y135493D01*
X293333Y135430D01*
X293917Y135177D01*
X294417Y134860D01*
X294750Y134480D01*
X295000Y133973D01*
Y132707D01*
G01X318011Y-131692D02*
X320611D01*
G01X0Y7874D02*
Y150000D01*
Y200000D01*
Y200787D01*
Y208661D01*
G02X7874Y216535I7874J0D01*
G01X291339D01*
G02X299213Y208661I0J-7874D01*
G01Y7874D01*
G02X291339Y0I-7874J0D01*
G01X7874D01*
G02X0Y7874I0J7874D01*
G01X22119Y11811D02*
G03I-10308J0D01*
G01Y204724D02*
G03I-10308J0D01*
G01X57091Y72213D02*
Y55284D01*
X54728D01*
G01X47642D02*
X45280D01*
Y72213D01*
G01X82906Y107906D02*
X71094D01*
Y96094D01*
X82906D01*
Y107906D01*
G01X83606Y124428D02*
X84394D01*
Y124100D01*
X84354Y123995D01*
X84302Y123929D01*
X84197Y123903D01*
X84092Y123929D01*
X84026Y124008D01*
X83987Y124100D01*
Y124428D01*
G01Y124100D02*
X83606Y123903D01*
G01X84262Y123234D02*
X84341Y123155D01*
X84381Y123063D01*
X84394Y122958D01*
X84368Y122827D01*
X84302Y122735D01*
X84223Y122709D01*
X84144Y122722D01*
X84079Y122774D01*
X83948Y123037D01*
X83856Y123155D01*
X83724Y123234D01*
X83606Y123260D01*
Y122709D01*
G01X83698Y122026D02*
X83633Y121934D01*
X83606Y121830D01*
X83633Y121724D01*
X83711Y121633D01*
X83829Y121567D01*
X83948Y121541D01*
X84092D01*
X84210Y121567D01*
X84315Y121633D01*
X84368Y121711D01*
X84394Y121803D01*
X84368Y121908D01*
X84315Y121987D01*
X84236Y122039D01*
X84131Y122066D01*
X84039Y122039D01*
X83948Y121974D01*
X83895Y121895D01*
X83882Y121803D01*
X83908Y121698D01*
X83974Y121619D01*
X84092Y121541D01*
G01X92606Y125428D02*
X93394D01*
Y125100D01*
X93354Y124995D01*
X93302Y124929D01*
X93197Y124903D01*
X93092Y124929D01*
X93026Y125008D01*
X92987Y125100D01*
Y125428D01*
G01Y125100D02*
X92606Y124903D01*
G01X92764Y124273D02*
X92672Y124194D01*
X92619Y124089D01*
X92606Y123971D01*
X92619Y123866D01*
X92685Y123761D01*
X92764Y123696D01*
X92842Y123682D01*
X92934Y123709D01*
X93000Y123801D01*
X93026Y123892D01*
Y124011D01*
G01Y123892D02*
X93066Y123814D01*
X93131Y123748D01*
X93210Y123722D01*
X93289Y123748D01*
X93354Y123814D01*
X93394Y123932D01*
X93381Y124050D01*
X93328Y124168D01*
G01X93394Y122803D02*
X93367Y122908D01*
X93302Y122987D01*
X93223Y123039D01*
X93118Y123079D01*
X93000Y123092D01*
X92882Y123079D01*
X92777Y123039D01*
X92698Y122987D01*
X92632Y122908D01*
X92606Y122803D01*
X92632Y122698D01*
X92698Y122619D01*
X92777Y122567D01*
X92882Y122528D01*
X93000Y122514D01*
X93118Y122528D01*
X93223Y122567D01*
X93302Y122619D01*
X93367Y122698D01*
X93394Y122803D01*
G01X128094Y56913D02*
Y73842D01*
X130457D01*
G01X137543D02*
X139906D01*
Y56913D01*
G01X134972Y155784D02*
X128280D01*
Y162083D01*
X134972D01*
Y155784D01*
G01X179193Y118976D02*
Y141811D01*
G01X201693Y118976D02*
Y141811D01*
G01X250465Y11811D02*
G03I-10308J0D01*
G01X224693Y118976D02*
Y141811D01*
G01X250465Y204724D02*
G03I-10308J0D01*
G01X286465Y95827D02*
Y135197D01*
X243158D01*
Y95827D01*
X286465D01*
G01X269929D02*
Y135197D01*
G01X280165Y95827D02*
Y135197D01*
G54D11*
G01X40000Y57500D02*
X42500Y60000D01*
Y65000D01*
X40000Y67500D01*
X42500Y70000D01*
Y77500D01*
X32500D01*
Y70000D01*
X35000Y67500D01*
X32500Y65000D01*
Y60000D01*
X35000Y57500D01*
X40000D01*
G01X151644Y111757D02*
G03Y112338I74J291D01*
G01X180300Y51500D02*
X177800Y54000D01*
X172800D01*
X170300Y51500D01*
X167800Y54000D01*
X160300D01*
Y44000D01*
X167800D01*
X170300Y46500D01*
X172800Y44000D01*
X177800D01*
X180300Y46500D01*
Y51500D01*
G01X183000Y164500D02*
X180500Y167000D01*
X175500D01*
X173000Y164500D01*
X170500Y167000D01*
X163000D01*
Y157000D01*
X170500D01*
X173000Y159500D01*
X175500Y157000D01*
X180500D01*
X183000Y159500D01*
Y164500D01*
G01X206000D02*
X203500Y167000D01*
X198500D01*
X196000Y164500D01*
X193500Y167000D01*
X186000D01*
Y157000D01*
X193500D01*
X196000Y159500D01*
X198500Y157000D01*
X203500D01*
X206000Y159500D01*
Y164500D01*
G01X229000D02*
X226500Y167000D01*
X221500D01*
X219000Y164500D01*
X216500Y167000D01*
X209000D01*
Y157000D01*
X216500D01*
X219000Y159500D01*
X221500Y157000D01*
X226500D01*
X229000Y159500D01*
Y164500D01*
G01X291500Y34500D02*
X294000Y37000D01*
Y42000D01*
X291500Y44500D01*
X294000Y47000D01*
Y54500D01*
X284000D01*
Y47000D01*
X286500Y44500D01*
X284000Y42000D01*
Y37000D01*
X286500Y34500D01*
X291500D01*
G54D12*
G01X97000Y131000D02*
X107000D01*
Y98000D01*
X97000D01*
Y131000D01*
X106000D01*
G01X107000Y129000D02*
X97000D01*
X102000Y134000D01*
X107000Y129000D01*
G01X118000Y90000D02*
X128000D01*
X123000Y85000D01*
X118000Y90000D01*
G01X128000Y88000D02*
X118000D01*
Y121000D01*
X128000D01*
Y88000D01*
X119000D01*
G54D13*
G01X21626Y91661D02*
X24169D01*
Y95205D01*
X21626D01*
G01X19626D02*
X17083D01*
Y91661D01*
X19626D01*
G01X21626Y101661D02*
X24169D01*
Y105205D01*
X21626D01*
G01X19626D02*
X17083D01*
Y101661D01*
X19626D01*
G01X21626Y111661D02*
X24169D01*
Y115205D01*
X21626D01*
G01X19626D02*
X17083D01*
Y111661D01*
X19626D01*
G01X56500Y102200D02*
Y106000D01*
X61500D01*
Y102200D01*
G01Y99800D02*
Y96000D01*
X56500D01*
Y99800D01*
G01X63500Y69800D02*
Y66000D01*
X58500D01*
Y69800D01*
G01Y72200D02*
Y76000D01*
X63500D01*
Y72200D01*
G01X71000Y93772D02*
X68457D01*
Y90228D01*
X71000D01*
G01X73000D02*
X75543D01*
Y93772D01*
X73000D01*
G01X66772Y96457D02*
X63228D01*
Y103543D01*
X66772D01*
Y96457D01*
G01Y103457D02*
X63228D01*
Y110543D01*
X66772D01*
Y103457D01*
G01X94772Y88457D02*
X91228D01*
Y95543D01*
X94772D01*
Y88457D01*
G01X89772Y97000D02*
Y99543D01*
X86228D01*
Y97000D01*
G01Y95000D02*
Y92457D01*
X89772D01*
Y95000D01*
G01X91228Y103543D02*
X94772D01*
Y96457D01*
X91228D01*
Y103543D01*
G01X91228Y110543D02*
X94772D01*
Y103457D01*
X91228D01*
Y110543D01*
G01Y117543D02*
X94772D01*
Y110457D01*
X91228D01*
Y117543D01*
G01X82228Y125543D02*
X85772D01*
Y118457D01*
X82228D01*
Y125543D01*
G01X91228Y126543D02*
X94772D01*
Y119457D01*
X91228D01*
Y126543D01*
G01X125500Y48800D02*
Y45000D01*
X120500D01*
Y48800D01*
G01Y51200D02*
Y55000D01*
X125500D01*
Y51200D01*
G01X115772Y155457D02*
X112228D01*
Y162543D01*
X115772D01*
Y155457D01*
G01X116228Y162543D02*
X119772D01*
Y155457D01*
X116228D01*
Y162543D01*
G01X134228Y129543D02*
X137772D01*
Y122457D01*
X134228D01*
Y129543D01*
G01X133772Y122457D02*
X130228D01*
Y129543D01*
X133772D01*
Y122457D01*
G01X141772D02*
X138228D01*
Y129543D01*
X141772D01*
Y122457D01*
G01X131500Y116200D02*
Y120000D01*
X136500D01*
Y116200D01*
G01Y113800D02*
Y110000D01*
X131500D01*
Y113800D01*
G01X140772Y156000D02*
Y158543D01*
X137228D01*
Y156000D01*
G01Y154000D02*
Y151457D01*
X140772D01*
Y154000D01*
G01X129429Y166705D02*
X126886D01*
Y163161D01*
X129429D01*
G01X131429D02*
X133972D01*
Y166705D01*
X131429D01*
G01X145543Y166772D02*
Y163228D01*
X138457D01*
Y166772D01*
X145543D01*
G01X151772Y92957D02*
X148228D01*
Y100043D01*
X151772D01*
Y92957D01*
G01X142457Y122228D02*
Y125772D01*
X149543D01*
Y122228D01*
X142457D01*
G01X157772Y122457D02*
X154228D01*
Y129543D01*
X157772D01*
Y122457D01*
G01X150228Y129543D02*
X153772D01*
Y122457D01*
X150228D01*
Y129543D01*
G01X153500Y116200D02*
Y120000D01*
X158500D01*
Y116200D01*
G01Y113800D02*
Y110000D01*
X153500D01*
Y113800D01*
G01X142228Y162543D02*
X145772D01*
Y155457D01*
X142228D01*
Y162543D01*
G01X174500Y151772D02*
X171957D01*
Y148228D01*
X174500D01*
G01X176500D02*
X179043D01*
Y151772D01*
X176500D01*
G01X199000Y148228D02*
X201543D01*
Y151772D01*
X199000D01*
G01X197000D02*
X194457D01*
Y148228D01*
X197000D01*
G01X221500D02*
X224043D01*
Y151772D01*
X221500D01*
G01X219500D02*
X216957D01*
Y148228D01*
X219500D01*
G01X227128Y114743D02*
X230672D01*
Y107657D01*
X227128D01*
Y114743D01*
G01X227028Y122943D02*
X230572D01*
Y115857D01*
X227028D01*
Y122943D01*
G54D14*
G01X90500Y75307D02*
Y75898D01*
G01X95500Y75307D02*
X90500D01*
G01Y75898D02*
X95500D01*
G01X90500Y76488D02*
Y87512D01*
G01X95500Y76488D02*
X90500D01*
G01Y87512D02*
X95500D01*
G01Y75898D02*
Y75307D01*
G01Y87512D02*
Y76488D01*
G01X147500Y77307D02*
Y77898D01*
G01X152500Y77307D02*
X147500D01*
G01X152500Y77898D02*
Y77307D01*
G01X147500Y77898D02*
X152500D01*
G01X147500Y78488D02*
Y89512D01*
G01X152500Y78488D02*
X147500D01*
G01X152500Y89512D02*
Y78488D01*
G01X147500Y89512D02*
X152500D01*
G01X241346Y106500D02*
Y101594D01*
X234654D01*
Y106500D01*
G01Y108500D02*
Y113406D01*
X241346D01*
Y108500D01*
G01X281500Y45685D02*
Y40779D01*
X274808D01*
Y45685D01*
G01Y47685D02*
Y52591D01*
X281500D01*
Y47685D01*
G54D15*
G01X93000Y81508D02*
Y81016D01*
G01Y82492D02*
Y82984D01*
G01Y81508D02*
X92016D01*
G01Y82492D02*
X93000Y81508D01*
G01X93984Y82492D02*
X92016D01*
G01X93000Y81508D02*
X93984Y82492D01*
G01Y81508D02*
X93000D01*
G01X150000Y83508D02*
Y83016D01*
G01Y84492D02*
Y84984D01*
G01Y83508D02*
X149016D01*
G01Y84492D02*
X150000Y83508D01*
G01X150984Y84492D02*
X149016D01*
G01X150000Y83508D02*
X150984Y84492D01*
G01Y83508D02*
X150000D01*
G54D16*
G01X134945Y100866D02*
Y109134D01*
X153055D01*
Y100866D01*
X134945D01*
G01X161445D02*
Y109134D01*
X179555D01*
Y100866D01*
X161445D01*
G01X183945D02*
Y109134D01*
X202055D01*
Y100866D01*
X183945D01*
G01X206445Y100866D02*
Y109134D01*
X224555D01*
Y100866D01*
X206445D01*
G54D17*
G01X84874Y95110D02*
G03I-984J0D01*
M02*
